<?xml version="1.0" encoding="UTF-8" standalone="no"?>
<!DOCTYPE svg PUBLIC "-//W3C//DTD SVG 1.1//EN"
 "http://www.w3.org/Graphics/SVG/1.1/DTD/svg11.dtd">
<!-- Generated by graphviz version 14.1.2 (20260124.0452)
 -->
<!-- Title: OSforGFF Pages: 1 -->
<svg width="4647pt" height="1454pt"
 viewBox="0.00 0.00 4647.00 1454.00" xmlns="http://www.w3.org/2000/svg" xmlns:xlink="http://www.w3.org/1999/xlink">
<g id="graph0" class="graph" transform="scale(1 1) rotate(0) translate(4 1450)">
<title>OSforGFF</title>
<polygon fill="white" stroke="none" points="-4,4 -4,-1450 4643,-1450 4643,4 -4,4"/>
<!-- GFFmaster -->
<g id="node1" class="node">
<title>GFFmaster</title>
<polygon fill="lightyellow" stroke="black" stroke-width="2" points="2757.12,-36 2690.88,-36 2690.88,0 2757.12,0 2757.12,-36"/>
<text xml:space="preserve" text-anchor="middle" x="2724" y="-14.3" font-family="Times,serif" font-size="11.00">GFFmaster</text>
</g>
<!-- OS0_GFF -->
<g id="node19" class="node">
<title>OS0_GFF</title>
<polygon fill="white" stroke="black" points="886.5,-600 825.5,-600 825.5,-564 886.5,-564 886.5,-600"/>
<text xml:space="preserve" text-anchor="middle" x="856" y="-578.3" font-family="Times,serif" font-size="11.00">OS0_GFF</text>
</g>
<!-- GFFmaster&#45;&gt;OS0_GFF -->
<g id="edge37" class="edge">
<title>GFFmaster&#45;&gt;OS0_GFF</title>
<path fill="none" stroke="#666666" d="M2690.14,-19.4C2413.65,-22.76 534.68,-47.23 426,-94 335.17,-133.09 319.33,-183.88 307,-282 299.07,-345.14 324.13,-364.97 367,-412 412.88,-462.32 426.12,-477.56 488,-506 598.61,-556.83 743.61,-573.41 814.01,-578.66"/>
<polygon fill="#666666" stroke="#666666" points="813.73,-582.15 823.95,-579.36 814.22,-575.17 813.73,-582.15"/>
</g>
<!-- GaussianFreeField -->
<g id="node22" class="node">
<title>GaussianFreeField</title>
<polygon fill="white" stroke="black" points="1948,-412 1848,-412 1848,-376 1948,-376 1948,-412"/>
<text xml:space="preserve" text-anchor="middle" x="1898" y="-390.3" font-family="Times,serif" font-size="11.00">GaussianFreeField</text>
</g>
<!-- GFFmaster&#45;&gt;GaussianFreeField -->
<g id="edge36" class="edge">
<title>GFFmaster&#45;&gt;GaussianFreeField</title>
<path fill="none" stroke="#666666" d="M2690.2,-35.96C2645.86,-58.1 2565.51,-97.81 2496,-130 2295.46,-222.87 2053.75,-326.73 1949.73,-371.05"/>
<polygon fill="#666666" stroke="#666666" points="1948.43,-367.8 1940.6,-374.94 1951.17,-374.24 1948.43,-367.8"/>
</g>
<!-- OS1_GFF -->
<g id="node23" class="node">
<title>OS1_GFF</title>
<polygon fill="white" stroke="black" points="2931.5,-412 2870.5,-412 2870.5,-376 2931.5,-376 2931.5,-412"/>
<text xml:space="preserve" text-anchor="middle" x="2901" y="-390.3" font-family="Times,serif" font-size="11.00">OS1_GFF</text>
</g>
<!-- GFFmaster&#45;&gt;OS1_GFF -->
<g id="edge38" class="edge">
<title>GFFmaster&#45;&gt;OS1_GFF</title>
<path fill="none" stroke="#666666" d="M2758.08,-27.47C2790.9,-37.54 2839.13,-57.73 2864,-94 2921.6,-178 2912.98,-307.19 2905.56,-364.24"/>
<polygon fill="#666666" stroke="#666666" points="2902.1,-363.7 2904.18,-374.08 2909.03,-364.67 2902.1,-363.7"/>
</g>
<!-- OS2_GFF -->
<g id="node24" class="node">
<title>OS2_GFF</title>
<polygon fill="white" stroke="black" points="2003.5,-318 1942.5,-318 1942.5,-282 2003.5,-282 2003.5,-318"/>
<text xml:space="preserve" text-anchor="middle" x="1973" y="-296.3" font-family="Times,serif" font-size="11.00">OS2_GFF</text>
</g>
<!-- GFFmaster&#45;&gt;OS2_GFF -->
<g id="edge39" class="edge">
<title>GFFmaster&#45;&gt;OS2_GFF</title>
<path fill="none" stroke="#666666" d="M2690.27,-31.57C2567.99,-77.17 2148.07,-233.73 2014.29,-283.6"/>
<polygon fill="#666666" stroke="#666666" points="2013.27,-280.25 2005.12,-287.02 2015.71,-286.81 2013.27,-280.25"/>
</g>
<!-- OS3_GFF -->
<g id="node25" class="node">
<title>OS3_GFF</title>
<polygon fill="white" stroke="black" points="3255.5,-412 3194.5,-412 3194.5,-376 3255.5,-376 3255.5,-412"/>
<text xml:space="preserve" text-anchor="middle" x="3225" y="-390.3" font-family="Times,serif" font-size="11.00">OS3_GFF</text>
</g>
<!-- GFFmaster&#45;&gt;OS3_GFF -->
<g id="edge40" class="edge">
<title>GFFmaster&#45;&gt;OS3_GFF</title>
<path fill="none" stroke="#666666" d="M2757.96,-30.08C2793.88,-42.63 2851.42,-65.15 2896,-94 3024.85,-177.4 3152.04,-311.65 3202.4,-367.43"/>
<polygon fill="#666666" stroke="#666666" points="3199.52,-369.45 3208.8,-374.56 3204.73,-364.78 3199.52,-369.45"/>
</g>
<!-- OS4_Clustering -->
<g id="node26" class="node">
<title>OS4_Clustering</title>
<polygon fill="white" stroke="black" points="1567.25,-130 1480.75,-130 1480.75,-94 1567.25,-94 1567.25,-130"/>
<text xml:space="preserve" text-anchor="middle" x="1524" y="-108.3" font-family="Times,serif" font-size="11.00">OS4_Clustering</text>
</g>
<!-- GFFmaster&#45;&gt;OS4_Clustering -->
<g id="edge41" class="edge">
<title>GFFmaster&#45;&gt;OS4_Clustering</title>
<path fill="none" stroke="#666666" d="M2690.02,-21.61C2522.78,-34.43 1786.86,-90.85 1578.9,-106.79"/>
<polygon fill="#666666" stroke="#666666" points="1578.9,-103.28 1569.19,-107.54 1579.43,-110.26 1578.9,-103.28"/>
</g>
<!-- OS4_Ergodicity -->
<g id="node27" class="node">
<title>OS4_Ergodicity</title>
<polygon fill="white" stroke="black" points="527.25,-130 440.75,-130 440.75,-94 527.25,-94 527.25,-130"/>
<text xml:space="preserve" text-anchor="middle" x="484" y="-108.3" font-family="Times,serif" font-size="11.00">OS4_Ergodicity</text>
</g>
<!-- GFFmaster&#45;&gt;OS4_Ergodicity -->
<g id="edge42" class="edge">
<title>GFFmaster&#45;&gt;OS4_Ergodicity</title>
<path fill="none" stroke="#666666" d="M2690.16,-20.39C2438.07,-30.74 854.39,-95.79 538.7,-108.75"/>
<polygon fill="#666666" stroke="#666666" points="538.94,-105.24 529.1,-109.15 539.23,-112.23 538.94,-105.24"/>
</g>
<!-- Basic -->
<g id="node2" class="node">
<title>Basic</title>
<polygon fill="lightblue" stroke="black" points="2401,-1352 2347,-1352 2347,-1316 2401,-1316 2401,-1352"/>
<text xml:space="preserve" text-anchor="middle" x="2374" y="-1330.3" font-family="Times,serif" font-size="11.00">Basic</text>
</g>
<!-- FunctionalAnalysis -->
<g id="node5" class="node">
<title>FunctionalAnalysis</title>
<polygon fill="white" stroke="black" points="2129.75,-1446 2028.25,-1446 2028.25,-1410 2129.75,-1410 2129.75,-1446"/>
<text xml:space="preserve" text-anchor="middle" x="2079" y="-1424.3" font-family="Times,serif" font-size="11.00">FunctionalAnalysis</text>
</g>
<!-- Basic&#45;&gt;FunctionalAnalysis -->
<g id="edge1" class="edge">
<title>Basic&#45;&gt;FunctionalAnalysis</title>
<path fill="none" stroke="#666666" d="M2346.51,-1343.57C2299.86,-1358.12 2204.1,-1387.98 2140.72,-1407.75"/>
<polygon fill="#666666" stroke="#666666" points="2140.01,-1404.31 2131.51,-1410.62 2142.1,-1410.99 2140.01,-1404.31"/>
</g>
<!-- Minlos -->
<g id="node3" class="node">
<title>Minlos</title>
<polygon fill="lightsalmon" stroke="black" points="1536,-882 1482,-882 1482,-846 1536,-846 1536,-882"/>
<text xml:space="preserve" text-anchor="middle" x="1509" y="-860.3" font-family="Times,serif" font-size="11.00">Minlos</text>
</g>
<!-- GaussianRBF -->
<g id="node28" class="node">
<title>GaussianRBF</title>
<polygon fill="white" stroke="black" points="1795.12,-976 1716.88,-976 1716.88,-940 1795.12,-940 1795.12,-976"/>
<text xml:space="preserve" text-anchor="middle" x="1756" y="-954.3" font-family="Times,serif" font-size="11.00">GaussianRBF</text>
</g>
<!-- Minlos&#45;&gt;GaussianRBF -->
<g id="edge61" class="edge">
<title>Minlos&#45;&gt;GaussianRBF</title>
<path fill="none" stroke="#666666" d="M1536.38,-875.2C1577.3,-890.44 1655.08,-919.41 1706.23,-938.46"/>
<polygon fill="#666666" stroke="#666666" points="1704.71,-941.63 1715.31,-941.84 1707.16,-935.07 1704.71,-941.63"/>
</g>
<!-- PositiveDefinite -->
<g id="node30" class="node">
<title>PositiveDefinite</title>
<polygon fill="white" stroke="black" points="1519,-1070 1431,-1070 1431,-1034 1519,-1034 1519,-1070"/>
<text xml:space="preserve" text-anchor="middle" x="1475" y="-1048.3" font-family="Times,serif" font-size="11.00">PositiveDefinite</text>
</g>
<!-- Minlos&#45;&gt;PositiveDefinite -->
<g id="edge63" class="edge">
<title>Minlos&#45;&gt;PositiveDefinite</title>
<path fill="none" stroke="#666666" d="M1481.56,-878.57C1459.57,-891.13 1430.26,-912.08 1417,-940 1402.86,-969.78 1425.81,-1003.22 1446.89,-1025.54"/>
<polygon fill="#666666" stroke="#666666" points="1444.2,-1027.8 1453.72,-1032.45 1449.17,-1022.88 1444.2,-1027.8"/>
</g>
<!-- NuclearSpace -->
<g id="node32" class="node">
<title>NuclearSpace</title>
<polygon fill="white" stroke="black" points="1510.5,-976 1431.5,-976 1431.5,-940 1510.5,-940 1510.5,-976"/>
<text xml:space="preserve" text-anchor="middle" x="1471" y="-954.3" font-family="Times,serif" font-size="11.00">NuclearSpace</text>
</g>
<!-- Minlos&#45;&gt;NuclearSpace -->
<g id="edge62" class="edge">
<title>Minlos&#45;&gt;NuclearSpace</title>
<path fill="none" stroke="#666666" d="M1501.85,-882.3C1496.39,-895.54 1488.74,-914.05 1482.43,-929.34"/>
<polygon fill="#666666" stroke="#666666" points="1479.28,-927.8 1478.69,-938.37 1485.75,-930.47 1479.28,-927.8"/>
</g>
<!-- OS_Axioms -->
<g id="node4" class="node">
<title>OS_Axioms</title>
<polygon fill="lightgreen" stroke="black" points="2031,-882 1961,-882 1961,-846 2031,-846 2031,-882"/>
<text xml:space="preserve" text-anchor="middle" x="1996" y="-860.3" font-family="Times,serif" font-size="11.00">OS_Axioms</text>
</g>
<!-- OS_Axioms&#45;&gt;Basic -->
<g id="edge150" class="edge">
<title>OS_Axioms&#45;&gt;Basic</title>
<path fill="none" stroke="#666666" d="M2001.89,-882.32C2025.46,-950.78 2114.63,-1201.54 2175,-1258 2220.2,-1300.27 2291.53,-1319.34 2335.39,-1327.47"/>
<polygon fill="#666666" stroke="#666666" points="2334.78,-1330.92 2345.23,-1329.18 2335.98,-1324.02 2334.78,-1330.92"/>
</g>
<!-- OS_Axioms&#45;&gt;FunctionalAnalysis -->
<g id="edge154" class="edge">
<title>OS_Axioms&#45;&gt;FunctionalAnalysis</title>
<path fill="none" stroke="#666666" d="M1960.56,-865.92C1886.01,-868.98 1708.75,-882.27 1574,-940 1549.16,-950.64 1549.14,-963.85 1525,-976 1357,-1060.56 603.91,-1115.79 727,-1258 812.72,-1357.03 1762.01,-1411.2 2016.53,-1424.01"/>
<polygon fill="#666666" stroke="#666666" points="2016.09,-1427.49 2026.25,-1424.5 2016.44,-1420.5 2016.09,-1427.49"/>
</g>
<!-- Euclidean -->
<g id="node7" class="node">
<title>Euclidean</title>
<polygon fill="white" stroke="black" points="2815.12,-1258 2754.88,-1258 2754.88,-1222 2815.12,-1222 2815.12,-1258"/>
<text xml:space="preserve" text-anchor="middle" x="2785" y="-1236.3" font-family="Times,serif" font-size="11.00">Euclidean</text>
</g>
<!-- OS_Axioms&#45;&gt;Euclidean -->
<g id="edge153" class="edge">
<title>OS_Axioms&#45;&gt;Euclidean</title>
<path fill="none" stroke="#666666" d="M2013.65,-882.16C2067.88,-933.82 2238.84,-1088.94 2411,-1164 2524.86,-1213.64 2672.63,-1230.8 2743.51,-1236.43"/>
<polygon fill="#666666" stroke="#666666" points="2742.87,-1239.89 2753.11,-1237.15 2743.4,-1232.91 2742.87,-1239.89"/>
</g>
<!-- ComplexTestFunction -->
<g id="node8" class="node">
<title>ComplexTestFunction</title>
<polygon fill="white" stroke="black" points="853,-1258 741,-1258 741,-1222 853,-1222 853,-1258"/>
<text xml:space="preserve" text-anchor="middle" x="797" y="-1236.3" font-family="Times,serif" font-size="11.00">ComplexTestFunction</text>
</g>
<!-- OS_Axioms&#45;&gt;ComplexTestFunction -->
<g id="edge151" class="edge">
<title>OS_Axioms&#45;&gt;ComplexTestFunction</title>
<path fill="none" stroke="#666666" d="M1960.91,-869.24C1904.11,-877.12 1789.57,-897.25 1702,-940 1617.16,-981.42 1617.2,-1025.38 1534,-1070 1419.06,-1131.65 1382.56,-1132.49 1256,-1164 1119.01,-1198.11 955.05,-1220.61 864.85,-1231.45"/>
<polygon fill="#666666" stroke="#666666" points="864.44,-1227.97 854.92,-1232.63 865.27,-1234.92 864.44,-1227.97"/>
</g>
<!-- DiscreteSymmetry -->
<g id="node11" class="node">
<title>DiscreteSymmetry</title>
<polygon fill="white" stroke="black" points="3304.62,-1164 3205.38,-1164 3205.38,-1128 3304.62,-1128 3304.62,-1164"/>
<text xml:space="preserve" text-anchor="middle" x="3255" y="-1142.3" font-family="Times,serif" font-size="11.00">DiscreteSymmetry</text>
</g>
<!-- OS_Axioms&#45;&gt;DiscreteSymmetry -->
<g id="edge152" class="edge">
<title>OS_Axioms&#45;&gt;DiscreteSymmetry</title>
<path fill="none" stroke="#666666" d="M2031.31,-875.21C2142.98,-907.24 2498.74,-1007.32 2798,-1070 2938.65,-1099.46 3105.66,-1124.34 3193.66,-1136.68"/>
<polygon fill="#666666" stroke="#666666" points="3193.14,-1140.14 3203.53,-1138.05 3194.11,-1133.21 3193.14,-1140.14"/>
</g>
<!-- Schwinger -->
<g id="node14" class="node">
<title>Schwinger</title>
<polygon fill="white" stroke="black" points="1241.62,-1164 1178.38,-1164 1178.38,-1128 1241.62,-1128 1241.62,-1164"/>
<text xml:space="preserve" text-anchor="middle" x="1210" y="-1142.3" font-family="Times,serif" font-size="11.00">Schwinger</text>
</g>
<!-- OS_Axioms&#45;&gt;Schwinger -->
<g id="edge156" class="edge">
<title>OS_Axioms&#45;&gt;Schwinger</title>
<path fill="none" stroke="#666666" d="M1960.72,-869.82C1897.42,-879.09 1760.9,-901.94 1651,-940 1616.44,-951.97 1610.68,-961.75 1577,-976 1507.34,-1005.47 1486.07,-1003.16 1417,-1034 1356.76,-1060.9 1289.98,-1098.13 1248.99,-1121.9"/>
<polygon fill="#666666" stroke="#666666" points="1247.33,-1118.81 1240.46,-1126.87 1250.86,-1124.86 1247.33,-1118.81"/>
</g>
<!-- PositiveTimeTestFunction_real -->
<g id="node16" class="node">
<title>PositiveTimeTestFunction_real</title>
<polygon fill="white" stroke="black" points="3712.62,-976 3559.38,-976 3559.38,-940 3712.62,-940 3712.62,-976"/>
<text xml:space="preserve" text-anchor="middle" x="3636" y="-954.3" font-family="Times,serif" font-size="11.00">PositiveTimeTestFunction_real</text>
</g>
<!-- OS_Axioms&#45;&gt;PositiveTimeTestFunction_real -->
<g id="edge155" class="edge">
<title>OS_Axioms&#45;&gt;PositiveTimeTestFunction_real</title>
<path fill="none" stroke="#666666" d="M2031.25,-866.81C2187.84,-874.89 2836.07,-908.59 3368,-940 3427.94,-943.54 3495.41,-947.82 3547.65,-951.2"/>
<polygon fill="#666666" stroke="#666666" points="3547.18,-954.68 3557.39,-951.83 3547.64,-947.69 3547.18,-954.68"/>
</g>
<!-- TimeTranslation -->
<g id="node42" class="node">
<title>TimeTranslation</title>
<polygon fill="white" stroke="black" points="458.75,-976 369.25,-976 369.25,-940 458.75,-940 458.75,-976"/>
<text xml:space="preserve" text-anchor="middle" x="414" y="-954.3" font-family="Times,serif" font-size="11.00">TimeTranslation</text>
</g>
<!-- OS_Axioms&#45;&gt;TimeTranslation -->
<g id="edge158" class="edge">
<title>OS_Axioms&#45;&gt;TimeTranslation</title>
<path fill="none" stroke="#666666" d="M1960.74,-867.05C1756.33,-878.94 723.8,-938.98 470.28,-953.73"/>
<polygon fill="#666666" stroke="#666666" points="470.44,-950.21 460.66,-954.29 470.84,-957.2 470.44,-950.21"/>
</g>
<!-- SchwingerTwoPointFunction -->
<g id="node45" class="node">
<title>SchwingerTwoPointFunction</title>
<polygon fill="white" stroke="black" points="1749.38,-1070 1606.62,-1070 1606.62,-1034 1749.38,-1034 1749.38,-1070"/>
<text xml:space="preserve" text-anchor="middle" x="1678" y="-1048.3" font-family="Times,serif" font-size="11.00">SchwingerTwoPointFunction</text>
</g>
<!-- OS_Axioms&#45;&gt;SchwingerTwoPointFunction -->
<g id="edge157" class="edge">
<title>OS_Axioms&#45;&gt;SchwingerTwoPointFunction</title>
<path fill="none" stroke="#666666" d="M1967.12,-882.5C1930.64,-904.53 1865.89,-943.45 1810,-976 1779.64,-993.68 1745.1,-1013.29 1718.98,-1028.02"/>
<polygon fill="#666666" stroke="#666666" points="1717.36,-1024.91 1710.36,-1032.86 1720.79,-1031.01 1717.36,-1024.91"/>
</g>
<!-- BesselFunction -->
<g id="node6" class="node">
<title>BesselFunction</title>
<polygon fill="white" stroke="black" points="2827.12,-1164 2742.88,-1164 2742.88,-1128 2827.12,-1128 2827.12,-1164"/>
<text xml:space="preserve" text-anchor="middle" x="2785" y="-1142.3" font-family="Times,serif" font-size="11.00">BesselFunction</text>
</g>
<!-- BesselFunction&#45;&gt;Euclidean -->
<g id="edge2" class="edge">
<title>BesselFunction&#45;&gt;Euclidean</title>
<path fill="none" stroke="#666666" d="M2785,-1164.3C2785,-1177.28 2785,-1195.34 2785,-1210.44"/>
<polygon fill="#666666" stroke="#666666" points="2781.5,-1210.26 2785,-1220.26 2788.5,-1210.26 2781.5,-1210.26"/>
</g>
<!-- Euclidean&#45;&gt;Basic -->
<g id="edge26" class="edge">
<title>Euclidean&#45;&gt;Basic</title>
<path fill="none" stroke="#666666" d="M2754.44,-1247.84C2680.86,-1264.31 2493.91,-1306.16 2412.67,-1324.34"/>
<polygon fill="#666666" stroke="#666666" points="2411.95,-1320.92 2402.96,-1326.52 2413.48,-1327.75 2411.95,-1320.92"/>
</g>
<!-- ComplexTestFunction&#45;&gt;Basic -->
<g id="edge3" class="edge">
<title>ComplexTestFunction&#45;&gt;Basic</title>
<path fill="none" stroke="#666666" d="M853.13,-1244.27C1104.48,-1258.94 2123.59,-1318.39 2335.35,-1330.75"/>
<polygon fill="#666666" stroke="#666666" points="2335.06,-1334.23 2345.25,-1331.32 2335.47,-1327.25 2335.06,-1334.23"/>
</g>
<!-- Covariance -->
<g id="node9" class="node">
<title>Covariance</title>
<polygon fill="white" stroke="black" points="3189.5,-882 3122.5,-882 3122.5,-846 3189.5,-846 3189.5,-882"/>
<text xml:space="preserve" text-anchor="middle" x="3156" y="-860.3" font-family="Times,serif" font-size="11.00">Covariance</text>
</g>
<!-- Covariance&#45;&gt;Basic -->
<g id="edge4" class="edge">
<title>Covariance&#45;&gt;Basic</title>
<path fill="none" stroke="#666666" d="M3147.85,-882.39C3117,-945.98 3000.45,-1166.93 2830,-1258 2757.48,-1296.74 2508.81,-1321.52 2412.51,-1329.86"/>
<polygon fill="#666666" stroke="#666666" points="2412.46,-1326.36 2402.79,-1330.69 2413.05,-1333.33 2412.46,-1326.36"/>
</g>
<!-- Covariance&#45;&gt;FunctionalAnalysis -->
<g id="edge9" class="edge">
<title>Covariance&#45;&gt;FunctionalAnalysis</title>
<path fill="none" stroke="#666666" d="M3122.14,-878.69C3086.66,-893.23 3029.45,-917.21 2981,-940 2638.37,-1101.18 2242.2,-1330.84 2118.17,-1403.82"/>
<polygon fill="#666666" stroke="#666666" points="2116.5,-1400.73 2109.66,-1408.83 2120.06,-1406.77 2116.5,-1400.73"/>
</g>
<!-- Covariance&#45;&gt;Euclidean -->
<g id="edge7" class="edge">
<title>Covariance&#45;&gt;Euclidean</title>
<path fill="none" stroke="#666666" d="M3140.46,-882.39C3098.4,-929.22 2978.26,-1061.38 2871,-1164 2852.72,-1181.49 2831.27,-1200.2 2814.36,-1214.56"/>
<polygon fill="#666666" stroke="#666666" points="2812.52,-1211.54 2807.14,-1220.66 2817.03,-1216.88 2812.52,-1211.54"/>
</g>
<!-- CovarianceMomentum -->
<g id="node10" class="node">
<title>CovarianceMomentum</title>
<polygon fill="white" stroke="black" points="2929.62,-1070 2812.38,-1070 2812.38,-1034 2929.62,-1034 2929.62,-1070"/>
<text xml:space="preserve" text-anchor="middle" x="2871" y="-1048.3" font-family="Times,serif" font-size="11.00">CovarianceMomentum</text>
</g>
<!-- Covariance&#45;&gt;CovarianceMomentum -->
<g id="edge5" class="edge">
<title>Covariance&#45;&gt;CovarianceMomentum</title>
<path fill="none" stroke="#666666" d="M3129.19,-882.5C3077.71,-916.1 2965,-989.65 2907.02,-1027.49"/>
<polygon fill="#666666" stroke="#666666" points="2905.26,-1024.46 2898.8,-1032.86 2909.09,-1030.32 2905.26,-1024.46"/>
</g>
<!-- Covariance&#45;&gt;DiscreteSymmetry -->
<g id="edge6" class="edge">
<title>Covariance&#45;&gt;DiscreteSymmetry</title>
<path fill="none" stroke="#666666" d="M3174.75,-882.25C3188.91,-896.38 3207.61,-917.63 3218,-940 3245.25,-998.69 3252.48,-1075.48 3254.37,-1116.4"/>
<polygon fill="#666666" stroke="#666666" points="3250.86,-1116.28 3254.73,-1126.14 3257.86,-1116.01 3250.86,-1116.28"/>
</g>
<!-- FourierTransforms -->
<g id="node12" class="node">
<title>FourierTransforms</title>
<polygon fill="white" stroke="black" points="3791.62,-1070 3692.38,-1070 3692.38,-1034 3791.62,-1034 3791.62,-1070"/>
<text xml:space="preserve" text-anchor="middle" x="3742" y="-1048.3" font-family="Times,serif" font-size="11.00">FourierTransforms</text>
</g>
<!-- Covariance&#45;&gt;FourierTransforms -->
<g id="edge8" class="edge">
<title>Covariance&#45;&gt;FourierTransforms</title>
<path fill="none" stroke="#666666" d="M3189.61,-875.67C3285.1,-905.98 3559,-992.92 3681.51,-1031.8"/>
<polygon fill="#666666" stroke="#666666" points="3680.15,-1035.04 3690.74,-1034.73 3682.27,-1028.37 3680.15,-1035.04"/>
</g>
<!-- Parseval -->
<g id="node13" class="node">
<title>Parseval</title>
<polygon fill="white" stroke="black" points="3353.12,-976 3298.88,-976 3298.88,-940 3353.12,-940 3353.12,-976"/>
<text xml:space="preserve" text-anchor="middle" x="3326" y="-954.3" font-family="Times,serif" font-size="11.00">Parseval</text>
</g>
<!-- Covariance&#45;&gt;Parseval -->
<g id="edge10" class="edge">
<title>Covariance&#45;&gt;Parseval</title>
<path fill="none" stroke="#666666" d="M3187.98,-882.3C3216.45,-897.72 3258.15,-920.28 3288.26,-936.58"/>
<polygon fill="#666666" stroke="#666666" points="3286.59,-939.65 3297.05,-941.33 3289.92,-933.5 3286.59,-939.65"/>
</g>
<!-- Covariance&#45;&gt;Schwinger -->
<g id="edge11" class="edge">
<title>Covariance&#45;&gt;Schwinger</title>
<path fill="none" stroke="#666666" d="M3122.16,-876.16C3114.9,-878.31 3107.24,-880.38 3100,-882 2925.54,-920.96 2877.54,-906.23 2702,-940 2458.74,-986.8 2404.67,-1031.24 2160,-1070 1813.02,-1124.96 1388.05,-1140.35 1253.19,-1144"/>
<polygon fill="#666666" stroke="#666666" points="1253.2,-1140.49 1243.3,-1144.25 1253.39,-1147.49 1253.2,-1140.49"/>
</g>
<!-- CovarianceMomentum&#45;&gt;Basic -->
<g id="edge12" class="edge">
<title>CovarianceMomentum&#45;&gt;Basic</title>
<path fill="none" stroke="#666666" d="M2836.69,-1070.48C2807.59,-1085.43 2764.82,-1107.69 2728,-1128 2611.12,-1192.46 2475.05,-1272.76 2410.97,-1310.91"/>
<polygon fill="#666666" stroke="#666666" points="2409.42,-1307.76 2402.62,-1315.88 2413,-1313.77 2409.42,-1307.76"/>
</g>
<!-- CovarianceMomentum&#45;&gt;FunctionalAnalysis -->
<g id="edge16" class="edge">
<title>CovarianceMomentum&#45;&gt;FunctionalAnalysis</title>
<path fill="none" stroke="#666666" d="M2873.84,-1070.28C2879.35,-1110.64 2886.48,-1211.25 2830,-1258 2723.87,-1345.84 2301.56,-1401.81 2141.21,-1420.27"/>
<polygon fill="#666666" stroke="#666666" points="2141.16,-1416.75 2131.62,-1421.36 2141.96,-1423.71 2141.16,-1416.75"/>
</g>
<!-- CovarianceMomentum&#45;&gt;BesselFunction -->
<g id="edge13" class="edge">
<title>CovarianceMomentum&#45;&gt;BesselFunction</title>
<path fill="none" stroke="#666666" d="M2854.82,-1070.3C2841.85,-1084.18 2823.45,-1103.86 2808.8,-1119.54"/>
<polygon fill="#666666" stroke="#666666" points="2806.41,-1116.97 2802.14,-1126.67 2811.52,-1121.75 2806.41,-1116.97"/>
</g>
<!-- CovarianceMomentum&#45;&gt;Euclidean -->
<g id="edge15" class="edge">
<title>CovarianceMomentum&#45;&gt;Euclidean</title>
<path fill="none" stroke="#666666" d="M2868.65,-1070.28C2865.11,-1092.76 2857.16,-1132.83 2842,-1164 2833.37,-1181.73 2820.23,-1199.4 2808.73,-1213.13"/>
<polygon fill="#666666" stroke="#666666" points="2806.35,-1210.54 2802.47,-1220.4 2811.65,-1215.11 2806.35,-1210.54"/>
</g>
<!-- CovarianceMomentum&#45;&gt;DiscreteSymmetry -->
<g id="edge14" class="edge">
<title>CovarianceMomentum&#45;&gt;DiscreteSymmetry</title>
<path fill="none" stroke="#666666" d="M2929.74,-1067.07C3001.38,-1084.24 3121.87,-1113.1 3194.36,-1130.47"/>
<polygon fill="#666666" stroke="#666666" points="3193.12,-1133.77 3203.66,-1132.7 3194.75,-1126.97 3193.12,-1133.77"/>
</g>
<!-- CovarianceMomentum&#45;&gt;Schwinger -->
<g id="edge17" class="edge">
<title>CovarianceMomentum&#45;&gt;Schwinger</title>
<path fill="none" stroke="#666666" d="M2811.88,-1056.27C2548.16,-1070.88 1482.04,-1129.93 1253.33,-1142.6"/>
<polygon fill="#666666" stroke="#666666" points="1253.17,-1139.1 1243.38,-1143.15 1253.56,-1146.09 1253.17,-1139.1"/>
</g>
<!-- DiscreteSymmetry&#45;&gt;Basic -->
<g id="edge24" class="edge">
<title>DiscreteSymmetry&#45;&gt;Basic</title>
<path fill="none" stroke="#666666" d="M3249.24,-1164.46C3239.84,-1189.91 3218.58,-1236.49 3183,-1258 3116.53,-1298.2 2565.44,-1324.75 2412.96,-1331.38"/>
<polygon fill="#666666" stroke="#666666" points="2412.82,-1327.88 2402.98,-1331.8 2413.12,-1334.87 2412.82,-1327.88"/>
</g>
<!-- DiscreteSymmetry&#45;&gt;Euclidean -->
<g id="edge25" class="edge">
<title>DiscreteSymmetry&#45;&gt;Euclidean</title>
<path fill="none" stroke="#666666" d="M3205.15,-1156.76C3111.98,-1175 2913.06,-1213.93 2826.58,-1230.86"/>
<polygon fill="#666666" stroke="#666666" points="2826.02,-1227.4 2816.88,-1232.76 2827.37,-1234.27 2826.02,-1227.4"/>
</g>
<!-- Parseval&#45;&gt;CovarianceMomentum -->
<g id="edge159" class="edge">
<title>Parseval&#45;&gt;CovarianceMomentum</title>
<path fill="none" stroke="#666666" d="M3298.56,-964.55C3228.84,-978.65 3043.16,-1016.19 2940.92,-1036.86"/>
<polygon fill="#666666" stroke="#666666" points="2940.38,-1033.4 2931.27,-1038.81 2941.77,-1040.26 2940.38,-1033.4"/>
</g>
<!-- Parseval&#45;&gt;FourierTransforms -->
<g id="edge160" class="edge">
<title>Parseval&#45;&gt;FourierTransforms</title>
<path fill="none" stroke="#666666" d="M3353.53,-969.27C3360.48,-971.66 3367.97,-974.07 3375,-976 3481.11,-1005.11 3607.28,-1028.5 3680.63,-1041.02"/>
<polygon fill="#666666" stroke="#666666" points="3680,-1044.46 3690.45,-1042.68 3681.17,-1037.56 3680,-1044.46"/>
</g>
<!-- Schwinger&#45;&gt;Basic -->
<g id="edge169" class="edge">
<title>Schwinger&#45;&gt;Basic</title>
<path fill="none" stroke="#666666" d="M1219.03,-1164.26C1233.5,-1189.9 1264.53,-1237.25 1306,-1258 1399.58,-1304.82 2154.93,-1327.3 2335.38,-1332.04"/>
<polygon fill="#666666" stroke="#666666" points="2335.06,-1335.53 2345.15,-1332.29 2335.24,-1328.53 2335.06,-1335.53"/>
</g>
<!-- Schwinger&#45;&gt;FunctionalAnalysis -->
<g id="edge171" class="edge">
<title>Schwinger&#45;&gt;FunctionalAnalysis</title>
<path fill="none" stroke="#666666" d="M1211.94,-1164.21C1215.67,-1188.91 1226.23,-1234.06 1255,-1258 1372.01,-1355.35 1844.84,-1406.22 2016.41,-1421.75"/>
<polygon fill="#666666" stroke="#666666" points="2015.97,-1425.23 2026.25,-1422.63 2016.6,-1418.25 2015.97,-1425.23"/>
</g>
<!-- Schwinger&#45;&gt;ComplexTestFunction -->
<g id="edge170" class="edge">
<title>Schwinger&#45;&gt;ComplexTestFunction</title>
<path fill="none" stroke="#666666" d="M1177.94,-1154.14C1110.87,-1169.08 954.54,-1203.91 864.38,-1223.99"/>
<polygon fill="#666666" stroke="#666666" points="863.66,-1220.57 854.66,-1226.16 865.18,-1227.4 863.66,-1220.57"/>
</g>
<!-- CovarianceR -->
<g id="node15" class="node">
<title>CovarianceR</title>
<polygon fill="white" stroke="black" points="3255.25,-788 3180.75,-788 3180.75,-752 3255.25,-752 3255.25,-788"/>
<text xml:space="preserve" text-anchor="middle" x="3218" y="-766.3" font-family="Times,serif" font-size="11.00">CovarianceR</text>
</g>
<!-- CovarianceR&#45;&gt;Basic -->
<g id="edge18" class="edge">
<title>CovarianceR&#45;&gt;Basic</title>
<path fill="none" stroke="#666666" d="M3255.55,-774.52C3406.01,-790.15 3950.44,-861.82 3806,-1070 3640.98,-1307.85 2624.86,-1330.62 2412.77,-1332.78"/>
<polygon fill="#666666" stroke="#666666" points="2412.82,-1329.28 2402.86,-1332.87 2412.89,-1336.28 2412.82,-1329.28"/>
</g>
<!-- CovarianceR&#45;&gt;ComplexTestFunction -->
<g id="edge19" class="edge">
<title>CovarianceR&#45;&gt;ComplexTestFunction</title>
<path fill="none" stroke="#666666" d="M3180.5,-776.94C3021.92,-802.38 2391.1,-906.58 1882,-1034 1828.81,-1047.31 1816.99,-1055.92 1764,-1070 1581.64,-1118.45 1535.67,-1130.4 1350,-1164 1176.09,-1195.47 969.25,-1220.17 864.7,-1231.77"/>
<polygon fill="#666666" stroke="#666666" points="864.44,-1228.28 854.89,-1232.86 865.21,-1235.24 864.44,-1228.28"/>
</g>
<!-- CovarianceR&#45;&gt;Covariance -->
<g id="edge20" class="edge">
<title>CovarianceR&#45;&gt;Covariance</title>
<path fill="none" stroke="#666666" d="M3206.34,-788.3C3197.16,-801.93 3184.21,-821.14 3173.75,-836.66"/>
<polygon fill="#666666" stroke="#666666" points="3171.14,-834.27 3168.46,-844.52 3176.95,-838.18 3171.14,-834.27"/>
</g>
<!-- CovarianceR&#45;&gt;CovarianceMomentum -->
<g id="edge21" class="edge">
<title>CovarianceR&#45;&gt;CovarianceMomentum</title>
<path fill="none" stroke="#666666" d="M3192.02,-788.3C3169.61,-803.32 3136.45,-825.78 3108,-846 3050.76,-886.68 3034.09,-894.04 2981,-940 2949.35,-967.4 2915.9,-1002.09 2894.31,-1025.33"/>
<polygon fill="#666666" stroke="#666666" points="2891.88,-1022.8 2887.67,-1032.53 2897.02,-1027.55 2891.88,-1022.8"/>
</g>
<!-- CovarianceR&#45;&gt;DiscreteSymmetry -->
<g id="edge22" class="edge">
<title>CovarianceR&#45;&gt;DiscreteSymmetry</title>
<path fill="none" stroke="#666666" d="M3242,-788.47C3277.53,-815.99 3342.65,-873.25 3368,-940 3394.13,-1008.81 3326.73,-1082.87 3285.06,-1120.3"/>
<polygon fill="#666666" stroke="#666666" points="3282.95,-1117.5 3277.74,-1126.72 3287.56,-1122.76 3282.95,-1117.5"/>
</g>
<!-- CovarianceR&#45;&gt;PositiveTimeTestFunction_real -->
<g id="edge23" class="edge">
<title>CovarianceR&#45;&gt;PositiveTimeTestFunction_real</title>
<path fill="none" stroke="#666666" d="M3255.46,-787.67C3331.08,-821.32 3501.95,-897.35 3586.58,-935.01"/>
<polygon fill="#666666" stroke="#666666" points="3585.01,-938.14 3595.57,-939.01 3587.86,-931.75 3585.01,-938.14"/>
</g>
<!-- PositiveTimeTestFunction_real&#45;&gt;Basic -->
<g id="edge161" class="edge">
<title>PositiveTimeTestFunction_real&#45;&gt;Basic</title>
<path fill="none" stroke="#666666" d="M3630.77,-976.4C3622.89,-1000.11 3605.96,-1042.73 3579,-1070 3453.21,-1197.25 3394.61,-1207.35 3223,-1258 3067.71,-1303.83 2557.47,-1326.11 2412.64,-1331.62"/>
<polygon fill="#666666" stroke="#666666" points="2412.68,-1328.11 2402.82,-1331.98 2412.95,-1335.11 2412.68,-1328.11"/>
</g>
<!-- PositiveTimeTestFunction_real&#45;&gt;DiscreteSymmetry -->
<g id="edge162" class="edge">
<title>PositiveTimeTestFunction_real&#45;&gt;DiscreteSymmetry</title>
<path fill="none" stroke="#666666" d="M3625.47,-976.1C3609.45,-1000.67 3576.6,-1045.66 3537,-1070 3468.38,-1112.19 3376.21,-1130.9 3316.22,-1139.03"/>
<polygon fill="#666666" stroke="#666666" points="3316.01,-1135.53 3306.54,-1140.28 3316.9,-1142.47 3316.01,-1135.53"/>
</g>
<!-- GFFIsGaussian -->
<g id="node17" class="node">
<title>GFFIsGaussian</title>
<polygon fill="white" stroke="black" points="1419.88,-506 1334.12,-506 1334.12,-470 1419.88,-470 1419.88,-506"/>
<text xml:space="preserve" text-anchor="middle" x="1377" y="-484.3" font-family="Times,serif" font-size="11.00">GFFIsGaussian</text>
</g>
<!-- GaussianMoments -->
<g id="node18" class="node">
<title>GaussianMoments</title>
<polygon fill="white" stroke="black" points="1175.25,-600 1076.75,-600 1076.75,-564 1175.25,-564 1175.25,-600"/>
<text xml:space="preserve" text-anchor="middle" x="1126" y="-578.3" font-family="Times,serif" font-size="11.00">GaussianMoments</text>
</g>
<!-- GFFIsGaussian&#45;&gt;GaussianMoments -->
<g id="edge27" class="edge">
<title>GFFIsGaussian&#45;&gt;GaussianMoments</title>
<path fill="none" stroke="#666666" d="M1333.85,-504.82C1292.59,-519.94 1230.06,-542.86 1184.36,-559.61"/>
<polygon fill="#666666" stroke="#666666" points="1183.32,-556.26 1175.13,-562.99 1185.73,-562.84 1183.32,-556.26"/>
</g>
<!-- GFFIsGaussian&#45;&gt;OS0_GFF -->
<g id="edge28" class="edge">
<title>GFFIsGaussian&#45;&gt;OS0_GFF</title>
<path fill="none" stroke="#666666" d="M1333.92,-496.61C1235.53,-513.98 995.29,-556.4 897.97,-573.59"/>
<polygon fill="#666666" stroke="#666666" points="897.56,-570.11 888.32,-575.29 898.78,-577 897.56,-570.11"/>
</g>
<!-- GaussianMoments&#45;&gt;Basic -->
<g id="edge54" class="edge">
<title>GaussianMoments&#45;&gt;Basic</title>
<path fill="none" stroke="#666666" d="M1152.56,-600.36C1193.92,-629.72 1269,-693.44 1269,-769 1269,-769 1269,-769 1269,-865 1269,-1108.89 1417.43,-1191.22 1652,-1258 1905.22,-1330.09 2225.99,-1334.47 2335.41,-1333.64"/>
<polygon fill="#666666" stroke="#666666" points="2335.34,-1337.14 2345.3,-1333.54 2335.27,-1330.14 2335.34,-1337.14"/>
</g>
<!-- GaussianMoments&#45;&gt;Schwinger -->
<g id="edge56" class="edge">
<title>GaussianMoments&#45;&gt;Schwinger</title>
<path fill="none" stroke="#666666" d="M1120.69,-600.24C1111.12,-632.86 1092,-705.97 1092,-769 1092,-769 1092,-769 1092,-959 1092,-1011 1100.82,-1026.3 1129,-1070 1141.53,-1089.43 1160.24,-1107.21 1176.53,-1120.57"/>
<polygon fill="#666666" stroke="#666666" points="1174.08,-1123.1 1184.08,-1126.58 1178.44,-1117.62 1174.08,-1123.1"/>
</g>
<!-- GFFMconstruct -->
<g id="node20" class="node">
<title>GFFMconstruct</title>
<polygon fill="white" stroke="black" points="1559.25,-694 1472.75,-694 1472.75,-658 1559.25,-658 1559.25,-694"/>
<text xml:space="preserve" text-anchor="middle" x="1516" y="-672.3" font-family="Times,serif" font-size="11.00">GFFMconstruct</text>
</g>
<!-- GaussianMoments&#45;&gt;GFFMconstruct -->
<g id="edge55" class="edge">
<title>GaussianMoments&#45;&gt;GFFMconstruct</title>
<path fill="none" stroke="#666666" d="M1175.64,-594.96C1182.8,-596.66 1190.09,-598.38 1197,-600 1309.75,-626.37 1338.53,-630.46 1451,-658 1454.35,-658.82 1457.79,-659.68 1461.26,-660.55"/>
<polygon fill="#666666" stroke="#666666" points="1460.32,-663.92 1470.88,-663.01 1462.05,-657.14 1460.32,-663.92"/>
</g>
<!-- OS0_GFF&#45;&gt;Basic -->
<g id="edge66" class="edge">
<title>OS0_GFF&#45;&gt;Basic</title>
<path fill="none" stroke="#666666" d="M841.45,-600.37C794.56,-657.63 647.59,-847.44 598,-1034 583.16,-1089.84 571.81,-1112.5 598,-1164 630.16,-1227.23 660.06,-1234.5 727,-1258 883.21,-1312.84 2102.2,-1329.81 2335.48,-1332.57"/>
<polygon fill="#666666" stroke="#666666" points="2335.19,-1336.07 2345.23,-1332.69 2335.27,-1329.07 2335.19,-1336.07"/>
</g>
<!-- OS0_GFF&#45;&gt;OS_Axioms -->
<g id="edge69" class="edge">
<title>OS0_GFF&#45;&gt;OS_Axioms</title>
<path fill="none" stroke="#666666" d="M886.98,-593.01C986.39,-624.88 1306.61,-725.53 1577,-788 1711.06,-818.98 1871.76,-844.57 1949.43,-856.22"/>
<polygon fill="#666666" stroke="#666666" points="1948.82,-859.67 1959.22,-857.68 1949.85,-852.74 1948.82,-859.67"/>
</g>
<!-- OS0_GFF&#45;&gt;ComplexTestFunction -->
<g id="edge67" class="edge">
<title>OS0_GFF&#45;&gt;ComplexTestFunction</title>
<path fill="none" stroke="#666666" d="M854.37,-600.28C852.94,-615.48 850.81,-638.2 849,-658 829.6,-870.21 806.96,-1126.11 799.51,-1210.49"/>
<polygon fill="#666666" stroke="#666666" points="796.03,-1210.11 798.64,-1220.38 803.01,-1210.73 796.03,-1210.11"/>
</g>
<!-- OS0_GFF&#45;&gt;Schwinger -->
<g id="edge70" class="edge">
<title>OS0_GFF&#45;&gt;Schwinger</title>
<path fill="none" stroke="#666666" d="M856,-600.44C856,-633.38 856,-707 856,-769 856,-769 856,-769 856,-959 856,-1097.81 1071.95,-1133.25 1166.52,-1142.12"/>
<polygon fill="#666666" stroke="#666666" points="1166.19,-1145.6 1176.45,-1142.98 1166.79,-1138.63 1166.19,-1145.6"/>
</g>
<!-- OS0_GFF&#45;&gt;GFFMconstruct -->
<g id="edge68" class="edge">
<title>OS0_GFF&#45;&gt;GFFMconstruct</title>
<path fill="none" stroke="#666666" d="M886.88,-585.46C975.34,-592.82 1237.08,-616.73 1451,-658 1454.38,-658.65 1457.85,-659.38 1461.34,-660.16"/>
<polygon fill="#666666" stroke="#666666" points="1460.46,-663.55 1471,-662.43 1462.07,-656.74 1460.46,-663.55"/>
</g>
<!-- GFFMconstruct&#45;&gt;Basic -->
<g id="edge29" class="edge">
<title>GFFMconstruct&#45;&gt;Basic</title>
<path fill="none" stroke="#666666" d="M1502.75,-694.12C1459.33,-752.42 1329.08,-946.47 1417,-1070 1528.34,-1226.44 1622.04,-1202.96 1806,-1258 1999.08,-1315.77 2242.34,-1329.08 2335.39,-1332.11"/>
<polygon fill="#666666" stroke="#666666" points="2335.13,-1335.61 2345.24,-1332.41 2335.35,-1328.61 2335.13,-1335.61"/>
</g>
<!-- GFFMconstruct&#45;&gt;Minlos -->
<g id="edge33" class="edge">
<title>GFFMconstruct&#45;&gt;Minlos</title>
<path fill="none" stroke="#666666" d="M1515.34,-694.5C1514.13,-726.64 1511.55,-795.34 1510.08,-834.37"/>
<polygon fill="#666666" stroke="#666666" points="1506.59,-834.05 1509.71,-844.17 1513.58,-834.31 1506.59,-834.05"/>
</g>
<!-- GFFMconstruct&#45;&gt;ComplexTestFunction -->
<g id="edge30" class="edge">
<title>GFFMconstruct&#45;&gt;ComplexTestFunction</title>
<path fill="none" stroke="#666666" d="M1472.46,-682.6C1415.34,-691.27 1313.17,-711.35 1235,-752 1020.21,-863.69 859.75,-1126.42 811.8,-1211.73"/>
<polygon fill="#666666" stroke="#666666" points="808.81,-1209.91 807.01,-1220.35 814.93,-1213.31 808.81,-1209.91"/>
</g>
<!-- GFFMconstruct&#45;&gt;Covariance -->
<g id="edge31" class="edge">
<title>GFFMconstruct&#45;&gt;Covariance</title>
<path fill="none" stroke="#666666" d="M1559.44,-681.93C1790.71,-708.16 2875.54,-831.19 3110.88,-857.88"/>
<polygon fill="#666666" stroke="#666666" points="3110.23,-861.33 3120.56,-858.98 3111.02,-854.38 3110.23,-861.33"/>
</g>
<!-- GFFMconstruct&#45;&gt;Schwinger -->
<g id="edge35" class="edge">
<title>GFFMconstruct&#45;&gt;Schwinger</title>
<path fill="none" stroke="#666666" d="M1472.48,-682.94C1388,-697.19 1210,-741.61 1210,-863 1210,-863 1210,-863 1210,-959 1210,-1014.7 1210,-1079.79 1210,-1116.32"/>
<polygon fill="#666666" stroke="#666666" points="1206.5,-1116.05 1210,-1126.05 1213.5,-1116.05 1206.5,-1116.05"/>
</g>
<!-- GFFMconstruct&#45;&gt;CovarianceR -->
<g id="edge32" class="edge">
<title>GFFMconstruct&#45;&gt;CovarianceR</title>
<path fill="none" stroke="#666666" d="M1559.35,-679.34C1795.03,-692.08 2920.67,-752.93 3169.31,-766.37"/>
<polygon fill="#666666" stroke="#666666" points="3168.8,-769.85 3178.97,-766.89 3169.18,-762.86 3168.8,-769.85"/>
</g>
<!-- MinlosAnalytic -->
<g id="node21" class="node">
<title>MinlosAnalytic</title>
<polygon fill="white" stroke="black" points="1676.5,-788 1591.5,-788 1591.5,-752 1676.5,-752 1676.5,-788"/>
<text xml:space="preserve" text-anchor="middle" x="1634" y="-766.3" font-family="Times,serif" font-size="11.00">MinlosAnalytic</text>
</g>
<!-- GFFMconstruct&#45;&gt;MinlosAnalytic -->
<g id="edge34" class="edge">
<title>GFFMconstruct&#45;&gt;MinlosAnalytic</title>
<path fill="none" stroke="#666666" d="M1538.19,-694.3C1556.49,-708.57 1582.65,-728.96 1603.01,-744.84"/>
<polygon fill="#666666" stroke="#666666" points="1600.67,-747.45 1610.71,-750.84 1604.98,-741.93 1600.67,-747.45"/>
</g>
<!-- MinlosAnalytic&#45;&gt;Basic -->
<g id="edge64" class="edge">
<title>MinlosAnalytic&#45;&gt;Basic</title>
<path fill="none" stroke="#666666" d="M1664.31,-788.49C1729.28,-826.96 1884.59,-924.28 1990,-1034 2073.35,-1120.76 2045.76,-1185.8 2142,-1258 2200.65,-1302 2286.15,-1320.79 2335.31,-1328.35"/>
<polygon fill="#666666" stroke="#666666" points="2334.8,-1331.81 2345.2,-1329.78 2335.8,-1324.88 2334.8,-1331.81"/>
</g>
<!-- MinlosAnalytic&#45;&gt;Minlos -->
<g id="edge65" class="edge">
<title>MinlosAnalytic&#45;&gt;Minlos</title>
<path fill="none" stroke="#666666" d="M1610.49,-788.3C1591.02,-802.63 1563.15,-823.14 1541.54,-839.05"/>
<polygon fill="#666666" stroke="#666666" points="1539.6,-836.13 1533.63,-844.88 1543.75,-841.77 1539.6,-836.13"/>
</g>
<!-- GaussianFreeField&#45;&gt;Basic -->
<g id="edge43" class="edge">
<title>GaussianFreeField&#45;&gt;Basic</title>
<path fill="none" stroke="#666666" d="M1906.87,-412.49C1964.8,-526.64 2288.88,-1165.26 2360.14,-1305.69"/>
<polygon fill="#666666" stroke="#666666" points="2356.85,-1306.95 2364.5,-1314.28 2363.1,-1303.78 2356.85,-1306.95"/>
</g>
<!-- GaussianFreeField&#45;&gt;Minlos -->
<g id="edge50" class="edge">
<title>GaussianFreeField&#45;&gt;Minlos</title>
<path fill="none" stroke="#666666" d="M1877.16,-412.45C1859.93,-427.2 1835.11,-449.19 1815,-470 1701.01,-587.91 1673,-619.03 1577,-752 1557.15,-779.49 1537.22,-812.88 1524.11,-835.82"/>
<polygon fill="#666666" stroke="#666666" points="1521.22,-833.81 1519.34,-844.24 1527.31,-837.26 1521.22,-833.81"/>
</g>
<!-- GaussianFreeField&#45;&gt;OS_Axioms -->
<g id="edge52" class="edge">
<title>GaussianFreeField&#45;&gt;OS_Axioms</title>
<path fill="none" stroke="#666666" d="M1898,-412.44C1898,-445.38 1898,-519 1898,-581 1898,-581 1898,-581 1898,-677 1898,-740.33 1943.01,-803.25 1972.02,-837.23"/>
<polygon fill="#666666" stroke="#666666" points="1969.16,-839.27 1978.38,-844.48 1974.42,-834.66 1969.16,-839.27"/>
</g>
<!-- GaussianFreeField&#45;&gt;FunctionalAnalysis -->
<g id="edge47" class="edge">
<title>GaussianFreeField&#45;&gt;FunctionalAnalysis</title>
<path fill="none" stroke="#666666" d="M1847.77,-403.88C1778.78,-416.48 1651.08,-441.22 1544,-470 1494.32,-483.35 1484.37,-495.55 1434,-506 1161.71,-562.49 1072.34,-468.96 811,-564 554.31,-657.35 279.45,-713.52 355,-976 435.19,-1254.59 608.59,-1274.73 888,-1352 1103.68,-1411.65 1803.45,-1424.03 2016.73,-1426.45"/>
<polygon fill="#666666" stroke="#666666" points="2016.45,-1429.95 2026.48,-1426.56 2016.52,-1422.95 2016.45,-1429.95"/>
</g>
<!-- GaussianFreeField&#45;&gt;Euclidean -->
<g id="edge46" class="edge">
<title>GaussianFreeField&#45;&gt;Euclidean</title>
<path fill="none" stroke="#666666" d="M1918.45,-412.37C1935.34,-427.08 1959.6,-449.05 1979,-470 2246.4,-758.77 2202.59,-944.12 2529,-1164 2595.74,-1208.96 2689.81,-1227.44 2743.37,-1234.67"/>
<polygon fill="#666666" stroke="#666666" points="2742.62,-1238.1 2752.98,-1235.9 2743.5,-1231.16 2742.62,-1238.1"/>
</g>
<!-- GaussianFreeField&#45;&gt;Covariance -->
<g id="edge44" class="edge">
<title>GaussianFreeField&#45;&gt;Covariance</title>
<path fill="none" stroke="#666666" d="M1930.04,-412.37C1980.5,-439.59 2076.4,-490.78 2112,-506 2489.23,-667.27 2965.98,-808.57 3111.7,-850.44"/>
<polygon fill="#666666" stroke="#666666" points="3110.38,-853.7 3120.96,-853.09 3112.31,-846.97 3110.38,-853.7"/>
</g>
<!-- GaussianFreeField&#45;&gt;DiscreteSymmetry -->
<g id="edge45" class="edge">
<title>GaussianFreeField&#45;&gt;DiscreteSymmetry</title>
<path fill="none" stroke="#666666" d="M1948.34,-411.59C1989.1,-425.58 2047.65,-446.97 2097,-470 2560.87,-686.43 3082.56,-1029.29 3220.21,-1121.51"/>
<polygon fill="#666666" stroke="#666666" points="3217.94,-1124.21 3228.19,-1126.87 3221.84,-1118.39 3217.94,-1124.21"/>
</g>
<!-- GaussianFreeField&#45;&gt;Schwinger -->
<g id="edge53" class="edge">
<title>GaussianFreeField&#45;&gt;Schwinger</title>
<path fill="none" stroke="#666666" d="M1847.63,-403.84C1792.73,-414.68 1703.2,-435.94 1632,-470 1382.97,-589.14 1151,-586.94 1151,-863 1151,-863 1151,-863 1151,-959 1151,-1017.64 1177.97,-1082.02 1195.44,-1117.56"/>
<polygon fill="#666666" stroke="#666666" points="1192.21,-1118.93 1199.84,-1126.28 1198.46,-1115.77 1192.21,-1118.93"/>
</g>
<!-- GaussianFreeField&#45;&gt;GFFIsGaussian -->
<g id="edge48" class="edge">
<title>GaussianFreeField&#45;&gt;GFFIsGaussian</title>
<path fill="none" stroke="#666666" d="M1847.78,-401.7C1763.48,-413.31 1588.36,-438.89 1442,-470 1438.46,-470.75 1434.83,-471.57 1431.17,-472.43"/>
<polygon fill="#666666" stroke="#666666" points="1430.58,-468.97 1421.69,-474.74 1432.24,-475.77 1430.58,-468.97"/>
</g>
<!-- GaussianFreeField&#45;&gt;GFFMconstruct -->
<g id="edge49" class="edge">
<title>GaussianFreeField&#45;&gt;GFFMconstruct</title>
<path fill="none" stroke="#666666" d="M1847.5,-403.66C1800.31,-413.64 1729.57,-433.55 1678,-470 1609.39,-518.5 1555.25,-604.14 1530.57,-647.78"/>
<polygon fill="#666666" stroke="#666666" points="1527.6,-645.91 1525.8,-656.35 1533.72,-649.31 1527.6,-645.91"/>
</g>
<!-- GaussianFreeField&#45;&gt;MinlosAnalytic -->
<g id="edge51" class="edge">
<title>GaussianFreeField&#45;&gt;MinlosAnalytic</title>
<path fill="none" stroke="#666666" d="M1885.97,-412.04C1843.97,-471.55 1703.62,-670.38 1652.68,-742.54"/>
<polygon fill="#666666" stroke="#666666" points="1649.88,-740.43 1646.97,-750.62 1655.6,-744.47 1649.88,-740.43"/>
</g>
<!-- OS1_GFF&#45;&gt;Basic -->
<g id="edge71" class="edge">
<title>OS1_GFF&#45;&gt;Basic</title>
<path fill="none" stroke="#666666" d="M2931.84,-398.01C3106.95,-415.58 3975.97,-509.28 4193,-658 4286.51,-722.08 4370.57,-783.19 4315,-882 4196.7,-1092.34 4071.01,-1064.84 3851,-1164 3722.46,-1221.94 3686.66,-1232.44 3548,-1258 3322.58,-1299.56 2589.87,-1325.9 2412.79,-1331.76"/>
<polygon fill="#666666" stroke="#666666" points="2412.87,-1328.25 2402.99,-1332.08 2413.1,-1335.25 2412.87,-1328.25"/>
</g>
<!-- OS1_GFF&#45;&gt;OS_Axioms -->
<g id="edge77" class="edge">
<title>OS1_GFF&#45;&gt;OS_Axioms</title>
<path fill="none" stroke="#666666" d="M2870.11,-410.97C2735.06,-480.81 2196.32,-759.41 2039.21,-840.65"/>
<polygon fill="#666666" stroke="#666666" points="2038.04,-837.32 2030.77,-845.02 2041.26,-843.54 2038.04,-837.32"/>
</g>
<!-- OS1_GFF&#45;&gt;Covariance -->
<g id="edge72" class="edge">
<title>OS1_GFF&#45;&gt;Covariance</title>
<path fill="none" stroke="#666666" d="M2910.38,-412.24C2940.23,-467.14 3035.74,-642.74 3115,-788 3123.69,-803.93 3133.44,-821.76 3141.25,-836.04"/>
<polygon fill="#666666" stroke="#666666" points="3137.95,-837.31 3145.82,-844.4 3144.09,-833.95 3137.95,-837.31"/>
</g>
<!-- OS1_GFF&#45;&gt;CovarianceMomentum -->
<g id="edge73" class="edge">
<title>OS1_GFF&#45;&gt;CovarianceMomentum</title>
<path fill="none" stroke="#666666" d="M2896.27,-412.37C2882.27,-465.39 2842,-629.97 2842,-769 2842,-769 2842,-769 2842,-865 2842,-921.38 2855.17,-986.23 2863.76,-1022.54"/>
<polygon fill="#666666" stroke="#666666" points="2860.35,-1023.34 2866.11,-1032.23 2867.15,-1021.69 2860.35,-1023.34"/>
</g>
<!-- OS1_GFF&#45;&gt;CovarianceR -->
<g id="edge74" class="edge">
<title>OS1_GFF&#45;&gt;CovarianceR</title>
<path fill="none" stroke="#666666" d="M2931.86,-405.85C2962.42,-417.81 3009.15,-439.48 3041,-470 3126.55,-551.97 3185.01,-684.16 3207.6,-741.26"/>
<polygon fill="#666666" stroke="#666666" points="3204.2,-742.18 3211.09,-750.23 3210.72,-739.64 3204.2,-742.18"/>
</g>
<!-- OS1_GFF&#45;&gt;GFFIsGaussian -->
<g id="edge75" class="edge">
<title>OS1_GFF&#45;&gt;GFFIsGaussian</title>
<path fill="none" stroke="#666666" d="M2870.21,-396.86C2681.21,-408.27 1677.95,-468.83 1431.64,-483.7"/>
<polygon fill="#666666" stroke="#666666" points="1431.43,-480.21 1421.66,-484.3 1431.86,-487.19 1431.43,-480.21"/>
</g>
<!-- OS1_GFF&#45;&gt;GFFMconstruct -->
<g id="edge76" class="edge">
<title>OS1_GFF&#45;&gt;GFFMconstruct</title>
<path fill="none" stroke="#666666" d="M2870.13,-401.24C2692.62,-437.13 1801.76,-617.23 1570.77,-663.93"/>
<polygon fill="#666666" stroke="#666666" points="1570.24,-660.46 1561.13,-665.88 1571.62,-667.33 1570.24,-660.46"/>
</g>
<!-- OS2_GFF&#45;&gt;Euclidean -->
<g id="edge79" class="edge">
<title>OS2_GFF&#45;&gt;Euclidean</title>
<path fill="none" stroke="#666666" d="M1985.07,-318.28C2029.88,-382.18 2191.75,-610.58 2339,-788 2375.16,-831.57 2385.77,-841.16 2425,-882 2547.34,-1009.36 2699.04,-1156.37 2758.93,-1214"/>
<polygon fill="#666666" stroke="#666666" points="2756.36,-1216.38 2766,-1220.79 2761.22,-1211.34 2756.36,-1216.38"/>
</g>
<!-- OS2_GFF&#45;&gt;Covariance -->
<g id="edge78" class="edge">
<title>OS2_GFF&#45;&gt;Covariance</title>
<path fill="none" stroke="#666666" d="M2003.83,-303.97C2067.29,-310.83 2216.33,-330.77 2333,-376 2665.08,-504.75 3018.53,-759.7 3124.34,-838.93"/>
<polygon fill="#666666" stroke="#666666" points="3121.93,-841.5 3132.03,-844.71 3126.14,-835.9 3121.93,-841.5"/>
</g>
<!-- OS2_GFF&#45;&gt;GFFIsGaussian -->
<g id="edge80" class="edge">
<title>OS2_GFF&#45;&gt;GFFIsGaussian</title>
<path fill="none" stroke="#666666" d="M1942.21,-310.61C1846.51,-340.47 1553.38,-431.96 1431.27,-470.06"/>
<polygon fill="#666666" stroke="#666666" points="1430.3,-466.7 1421.79,-473.02 1432.38,-473.38 1430.3,-466.7"/>
</g>
<!-- OS2_GFF&#45;&gt;GaussianFreeField -->
<g id="edge81" class="edge">
<title>OS2_GFF&#45;&gt;GaussianFreeField</title>
<path fill="none" stroke="#666666" d="M1958.89,-318.3C1947.68,-332.05 1931.83,-351.5 1919.11,-367.1"/>
<polygon fill="#666666" stroke="#666666" points="1916.61,-364.64 1913,-374.6 1922.03,-369.06 1916.61,-364.64"/>
</g>
<!-- OS3_GFF&#45;&gt;Basic -->
<g id="edge90" class="edge">
<title>OS3_GFF&#45;&gt;Basic</title>
<path fill="none" stroke="#666666" d="M3255.85,-395.71C3462.63,-400.85 4639,-436.46 4639,-581 4639,-581 4639,-581 4639,-865 4639,-879.29 4180.25,-1064.64 4167,-1070 3939.98,-1161.91 3889.13,-1209.81 3649,-1258 3403.56,-1307.25 2599.22,-1327.97 2412.82,-1332.17"/>
<polygon fill="#666666" stroke="#666666" points="2412.88,-1328.67 2402.96,-1332.39 2413.03,-1335.67 2412.88,-1328.67"/>
</g>
<!-- OS3_GFF&#45;&gt;OS_Axioms -->
<g id="edge97" class="edge">
<title>OS3_GFF&#45;&gt;OS_Axioms</title>
<path fill="none" stroke="#666666" d="M3194.22,-406.76C3069.48,-454.41 2589.28,-637.8 2194,-788 2141.91,-807.79 2082.08,-830.45 2041.94,-845.63"/>
<polygon fill="#666666" stroke="#666666" points="2040.95,-842.26 2032.83,-849.07 2043.43,-848.81 2040.95,-842.26"/>
</g>
<!-- OS3_GFF&#45;&gt;DiscreteSymmetry -->
<g id="edge92" class="edge">
<title>OS3_GFF&#45;&gt;DiscreteSymmetry</title>
<path fill="none" stroke="#666666" d="M3245.86,-412.14C3312.35,-468.85 3515,-658.45 3515,-863 3515,-863 3515,-863 3515,-959 3515,-1056.47 3392.65,-1107.74 3315.81,-1130.33"/>
<polygon fill="#666666" stroke="#666666" points="3314.94,-1126.94 3306.28,-1133.04 3316.85,-1133.67 3314.94,-1126.94"/>
</g>
<!-- OS3_GFF&#45;&gt;CovarianceR -->
<g id="edge91" class="edge">
<title>OS3_GFF&#45;&gt;CovarianceR</title>
<path fill="none" stroke="#666666" d="M3224.68,-412.04C3223.58,-471.06 3219.91,-667.13 3218.53,-740.75"/>
<polygon fill="#666666" stroke="#666666" points="3215.04,-740.28 3218.35,-750.34 3222.04,-740.41 3215.04,-740.28"/>
</g>
<!-- OS3_GFF&#45;&gt;PositiveTimeTestFunction_real -->
<g id="edge98" class="edge">
<title>OS3_GFF&#45;&gt;PositiveTimeTestFunction_real</title>
<path fill="none" stroke="#666666" d="M3255.88,-396.75C3342.25,-403.48 3580,-435.23 3580,-581 3580,-581 3580,-581 3580,-771 3580,-829.37 3605.6,-893.84 3622.18,-929.48"/>
<polygon fill="#666666" stroke="#666666" points="3618.88,-930.69 3626.35,-938.21 3625.2,-927.68 3618.88,-930.69"/>
</g>
<!-- OS3_GFF&#45;&gt;GFFIsGaussian -->
<g id="edge93" class="edge">
<title>OS3_GFF&#45;&gt;GFFIsGaussian</title>
<path fill="none" stroke="#666666" d="M3194.04,-397.02C3142.57,-400.35 3036.13,-407.1 2946,-412 2352.96,-444.24 1633.4,-475.91 1431.8,-484.64"/>
<polygon fill="#666666" stroke="#666666" points="1431.73,-481.14 1421.89,-485.07 1432.03,-488.13 1431.73,-481.14"/>
</g>
<!-- OS3_GFF&#45;&gt;GFFMconstruct -->
<g id="edge94" class="edge">
<title>OS3_GFF&#45;&gt;GFFMconstruct</title>
<path fill="none" stroke="#666666" d="M3194.23,-400.28C3055.67,-424.03 2475.7,-523.14 1999,-600 1843.9,-625.01 1660.52,-653.07 1570.89,-666.69"/>
<polygon fill="#666666" stroke="#666666" points="1570.51,-663.21 1561.15,-668.17 1571.56,-670.13 1570.51,-663.21"/>
</g>
<!-- HadamardExp -->
<g id="node29" class="node">
<title>HadamardExp</title>
<polygon fill="white" stroke="black" points="1975.88,-1070 1896.12,-1070 1896.12,-1034 1975.88,-1034 1975.88,-1070"/>
<text xml:space="preserve" text-anchor="middle" x="1936" y="-1048.3" font-family="Times,serif" font-size="11.00">HadamardExp</text>
</g>
<!-- OS3_GFF&#45;&gt;HadamardExp -->
<g id="edge95" class="edge">
<title>OS3_GFF&#45;&gt;HadamardExp</title>
<path fill="none" stroke="#666666" d="M3194.09,-410.73C3022.11,-498.25 2183.55,-925.02 1980.39,-1028.41"/>
<polygon fill="#666666" stroke="#666666" points="1979.05,-1025.16 1971.73,-1032.82 1982.23,-1031.4 1979.05,-1025.16"/>
</g>
<!-- OS3_CovarianceRP -->
<g id="node33" class="node">
<title>OS3_CovarianceRP</title>
<polygon fill="white" stroke="black" points="3729.62,-600 3624.38,-600 3624.38,-564 3729.62,-564 3729.62,-600"/>
<text xml:space="preserve" text-anchor="middle" x="3677" y="-578.3" font-family="Times,serif" font-size="11.00">OS3_CovarianceRP</text>
</g>
<!-- OS3_GFF&#45;&gt;OS3_CovarianceRP -->
<g id="edge96" class="edge">
<title>OS3_GFF&#45;&gt;OS3_CovarianceRP</title>
<path fill="none" stroke="#666666" d="M3255.97,-398.11C3335.52,-406.58 3544.75,-431.96 3602,-470 3632.51,-490.27 3653.87,-527.62 3665.78,-553.35"/>
<polygon fill="#666666" stroke="#666666" points="3662.45,-554.47 3669.7,-562.2 3668.86,-551.64 3662.45,-554.47"/>
</g>
<!-- OS4_Clustering&#45;&gt;Basic -->
<g id="edge113" class="edge">
<title>OS4_Clustering&#45;&gt;Basic</title>
<path fill="none" stroke="#666666" d="M1567.31,-114.68C1709.91,-120.58 2163.56,-142.57 2302,-188 2393.47,-218.02 2488,-202.73 2488,-299 2488,-299 2488,-299 2488,-677 2488,-923.43 2408.95,-1214.33 2382.5,-1304.76"/>
<polygon fill="#666666" stroke="#666666" points="2379.17,-1303.67 2379.7,-1314.26 2385.89,-1305.66 2379.17,-1303.67"/>
</g>
<!-- OS4_Clustering&#45;&gt;OS_Axioms -->
<g id="edge123" class="edge">
<title>OS4_Clustering&#45;&gt;OS_Axioms</title>
<path fill="none" stroke="#666666" d="M1567.7,-113.17C1740.94,-114.99 2370,-133.01 2370,-299 2370,-299 2370,-299 2370,-489 2370,-537.72 2112.94,-762.72 2025.05,-838.22"/>
<polygon fill="#666666" stroke="#666666" points="2022.84,-835.51 2017.52,-844.68 2027.39,-840.82 2022.84,-835.51"/>
</g>
<!-- OS4_Clustering&#45;&gt;FunctionalAnalysis -->
<g id="edge117" class="edge">
<title>OS4_Clustering&#45;&gt;FunctionalAnalysis</title>
<path fill="none" stroke="#666666" d="M1480.41,-113.49C1335.27,-115.67 870.01,-127.36 735,-188 707.03,-200.56 655.39,-260.04 634,-282 595.11,-321.92 585.25,-332.03 551,-376 327.6,-662.8 89,-687.46 89,-1051 89,-1051 89,-1051 89,-1241 89,-1254.78 -93.28,-1259.79 748,-1352 1234.47,-1405.32 1825.36,-1421.72 2016.3,-1425.82"/>
<polygon fill="#666666" stroke="#666666" points="2016.17,-1429.32 2026.25,-1426.03 2016.32,-1422.32 2016.17,-1429.32"/>
</g>
<!-- OS4_Clustering&#45;&gt;ComplexTestFunction -->
<g id="edge114" class="edge">
<title>OS4_Clustering&#45;&gt;ComplexTestFunction</title>
<path fill="none" stroke="#666666" d="M1480.3,-113.2C1385.55,-114.86 1155.21,-125.57 975,-188 897.07,-215 875.43,-225.87 815,-282 777.78,-316.57 778.11,-333.7 750,-376 695.13,-458.56 660.3,-469.62 630,-564 573.97,-738.55 554.24,-801.36 610,-976 641.87,-1075.82 726.99,-1170.16 770.53,-1213.75"/>
<polygon fill="#666666" stroke="#666666" points="768.01,-1216.18 777.59,-1220.72 772.93,-1211.2 768.01,-1216.18"/>
</g>
<!-- OS4_Clustering&#45;&gt;Covariance -->
<g id="edge115" class="edge">
<title>OS4_Clustering&#45;&gt;Covariance</title>
<path fill="none" stroke="#666666" d="M1567.66,-112.59C1753.05,-111.36 2475.26,-111.63 2687,-188 2936.79,-278.09 3137,-315.47 3137,-581 3137,-581 3137,-581 3137,-677 3137,-732.99 3145.63,-797.98 3151.25,-834.42"/>
<polygon fill="#666666" stroke="#666666" points="3147.77,-834.8 3152.79,-844.13 3154.69,-833.7 3147.77,-834.8"/>
</g>
<!-- OS4_Clustering&#45;&gt;CovarianceMomentum -->
<g id="edge116" class="edge">
<title>OS4_Clustering&#45;&gt;CovarianceMomentum</title>
<path fill="none" stroke="#666666" d="M1567.62,-113.21C1734.63,-114.51 2332.93,-123.62 2510,-188 2589.63,-216.95 2665,-214.27 2665,-299 2665,-299 2665,-299 2665,-677 2665,-824.72 2789.82,-969.08 2845.14,-1025.8"/>
<polygon fill="#666666" stroke="#666666" points="2842.49,-1028.11 2852.01,-1032.76 2847.47,-1023.19 2842.49,-1028.11"/>
</g>
<!-- OS4_Clustering&#45;&gt;Schwinger -->
<g id="edge125" class="edge">
<title>OS4_Clustering&#45;&gt;Schwinger</title>
<path fill="none" stroke="#666666" d="M1489.86,-130.4C1378.52,-189.86 1033,-396.77 1033,-675 1033,-675 1033,-675 1033,-959 1033,-1036.94 1115.56,-1095.18 1167.91,-1124.27"/>
<polygon fill="#666666" stroke="#666666" points="1166.15,-1127.3 1176.62,-1128.98 1169.48,-1121.14 1166.15,-1127.3"/>
</g>
<!-- OS4_Clustering&#45;&gt;GFFIsGaussian -->
<g id="edge118" class="edge">
<title>OS4_Clustering&#45;&gt;GFFIsGaussian</title>
<path fill="none" stroke="#666666" d="M1517.3,-130.04C1494.06,-189.18 1416.72,-385.94 1387.93,-459.2"/>
<polygon fill="#666666" stroke="#666666" points="1384.69,-457.86 1384.29,-468.45 1391.21,-460.42 1384.69,-457.86"/>
</g>
<!-- OS4_Clustering&#45;&gt;GFFMconstruct -->
<g id="edge119" class="edge">
<title>OS4_Clustering&#45;&gt;GFFMconstruct</title>
<path fill="none" stroke="#666666" d="M1523.75,-130.44C1522.61,-210.83 1517.84,-546.07 1516.41,-646.47"/>
<polygon fill="#666666" stroke="#666666" points="1512.91,-646.21 1516.27,-656.25 1519.91,-646.3 1512.91,-646.21"/>
</g>
<!-- OS4_Clustering&#45;&gt;GaussianFreeField -->
<g id="edge120" class="edge">
<title>OS4_Clustering&#45;&gt;GaussianFreeField</title>
<path fill="none" stroke="#666666" d="M1547.11,-130.3C1611.41,-178.44 1792.49,-314.01 1866.19,-369.19"/>
<polygon fill="#666666" stroke="#666666" points="1863.73,-371.71 1873.83,-374.9 1867.92,-366.11 1863.73,-371.71"/>
</g>
<!-- OS4_Clustering&#45;&gt;OS2_GFF -->
<g id="edge121" class="edge">
<title>OS4_Clustering&#45;&gt;OS2_GFF</title>
<path fill="none" stroke="#666666" d="M1567.66,-116.33C1658.76,-124.04 1865.19,-145.79 1920,-188 1946.41,-208.34 1960.32,-245.14 1967.15,-270.77"/>
<polygon fill="#666666" stroke="#666666" points="1963.68,-271.31 1969.45,-280.19 1970.48,-269.65 1963.68,-271.31"/>
</g>
<!-- OS4_MGF -->
<g id="node40" class="node">
<title>OS4_MGF</title>
<polygon fill="white" stroke="black" points="1054.38,-224 989.62,-224 989.62,-188 1054.38,-188 1054.38,-224"/>
<text xml:space="preserve" text-anchor="middle" x="1022" y="-202.3" font-family="Times,serif" font-size="11.00">OS4_MGF</text>
</g>
<!-- OS4_Clustering&#45;&gt;OS4_MGF -->
<g id="edge122" class="edge">
<title>OS4_Clustering&#45;&gt;OS4_MGF</title>
<path fill="none" stroke="#666666" d="M1480.33,-121C1385.41,-138.4 1161.21,-179.49 1066,-196.94"/>
<polygon fill="#666666" stroke="#666666" points="1065.47,-193.48 1056.26,-198.72 1066.73,-200.36 1065.47,-193.48"/>
</g>
<!-- QuantitativeDecay -->
<g id="node41" class="node">
<title>QuantitativeDecay</title>
<polygon fill="white" stroke="black" points="672,-224 572,-224 572,-188 672,-188 672,-224"/>
<text xml:space="preserve" text-anchor="middle" x="622" y="-202.3" font-family="Times,serif" font-size="11.00">QuantitativeDecay</text>
</g>
<!-- OS4_Clustering&#45;&gt;QuantitativeDecay -->
<g id="edge124" class="edge">
<title>OS4_Clustering&#45;&gt;QuantitativeDecay</title>
<path fill="none" stroke="#666666" d="M1480.53,-114.75C1356.81,-120.21 992.48,-139.53 694,-188 690.45,-188.58 686.82,-189.23 683.16,-189.94"/>
<polygon fill="#666666" stroke="#666666" points="682.74,-186.45 673.65,-191.89 684.15,-193.31 682.74,-186.45"/>
</g>
<!-- OS4_Clustering&#45;&gt;TimeTranslation -->
<g id="edge126" class="edge">
<title>OS4_Clustering&#45;&gt;TimeTranslation</title>
<path fill="none" stroke="#666666" d="M1480.52,-114.76C1345.64,-120.68 935.98,-142.06 812,-188 743.1,-213.53 728.09,-230.17 676,-282 567.62,-389.84 536.68,-422.41 479,-564 426.44,-693.03 416.35,-862.36 414.44,-928.66"/>
<polygon fill="#666666" stroke="#666666" points="410.95,-928.21 414.2,-938.29 417.94,-928.38 410.95,-928.21"/>
</g>
<!-- OS4_Ergodicity&#45;&gt;Basic -->
<g id="edge127" class="edge">
<title>OS4_Ergodicity&#45;&gt;Basic</title>
<path fill="none" stroke="#666666" d="M440.48,-115.99C345.14,-123.27 121.54,-144.6 61,-188 15.25,-220.79 0,-242.71 0,-299 0,-299 0,-299 0,-677 0,-855.76 148,-872.24 148,-1051 148,-1051 148,-1051 148,-1147 148,-1284.18 301.65,-1230.31 436,-1258 818.07,-1336.75 2096.22,-1334.39 2335.3,-1333.23"/>
<polygon fill="#666666" stroke="#666666" points="2335.01,-1336.73 2344.99,-1333.18 2334.98,-1329.73 2335.01,-1336.73"/>
</g>
<!-- OS4_Ergodicity&#45;&gt;OS_Axioms -->
<g id="edge136" class="edge">
<title>OS4_Ergodicity&#45;&gt;OS_Axioms</title>
<path fill="none" stroke="#666666" d="M527.49,-113.9C652.96,-117.16 1013.01,-131.35 1114,-188 1160.37,-214.01 1157.99,-238.11 1188,-282 1253.22,-377.39 1235.27,-427.43 1320,-506 1348.06,-532.02 1595,-640.46 1629,-658 1707.12,-698.29 1726.23,-709.2 1803,-752 1856.46,-781.81 1917.63,-817.21 1956.51,-839.88"/>
<polygon fill="#666666" stroke="#666666" points="1954.67,-842.86 1965.08,-844.88 1958.2,-836.81 1954.67,-842.86"/>
</g>
<!-- OS4_Ergodicity&#45;&gt;ComplexTestFunction -->
<g id="edge128" class="edge">
<title>OS4_Ergodicity&#45;&gt;ComplexTestFunction</title>
<path fill="none" stroke="#666666" d="M440.47,-116.13C390.37,-122.03 308.75,-139.03 260,-188 228.96,-219.18 239.39,-239.25 229,-282 154.97,-586.62 224.45,-690.99 355,-976 396.79,-1067.22 397.65,-1106.67 480,-1164 554.85,-1216.11 661.2,-1232.33 729.66,-1237.2"/>
<polygon fill="#666666" stroke="#666666" points="729.01,-1240.66 739.21,-1237.81 729.46,-1233.68 729.01,-1240.66"/>
</g>
<!-- OS4_Ergodicity&#45;&gt;CovarianceMomentum -->
<g id="edge129" class="edge">
<title>OS4_Ergodicity&#45;&gt;CovarianceMomentum</title>
<path fill="none" stroke="#666666" d="M527.45,-115.42C746.28,-127.99 1728.56,-188.72 2018,-282 2257.89,-359.31 2343.03,-375.2 2510,-564 2619.83,-688.19 2615.5,-742.45 2705,-882 2732.15,-924.33 2733.14,-939.75 2768,-976 2786.98,-995.73 2811.67,-1013.91 2832.13,-1027.43"/>
<polygon fill="#666666" stroke="#666666" points="2830.22,-1030.36 2840.51,-1032.86 2834.02,-1024.48 2830.22,-1030.36"/>
</g>
<!-- OS4_Ergodicity&#45;&gt;Schwinger -->
<g id="edge138" class="edge">
<title>OS4_Ergodicity&#45;&gt;Schwinger</title>
<path fill="none" stroke="#666666" d="M440.52,-124.07C369.39,-145.08 236,-197.95 236,-299 236,-299 236,-299 236,-395 236,-809.33 518.67,-865.48 879,-1070 972.54,-1123.09 1100.98,-1138.6 1166.98,-1143.13"/>
<polygon fill="#666666" stroke="#666666" points="1166.47,-1146.61 1176.67,-1143.74 1166.9,-1139.62 1166.47,-1146.61"/>
</g>
<!-- OS4_Ergodicity&#45;&gt;GFFIsGaussian -->
<g id="edge130" class="edge">
<title>OS4_Ergodicity&#45;&gt;GFFIsGaussian</title>
<path fill="none" stroke="#666666" d="M491.08,-130.3C501.92,-154.7 524.92,-199.02 558,-224 802.88,-408.91 1182.28,-466.42 1322.5,-481.92"/>
<polygon fill="#666666" stroke="#666666" points="1321.93,-485.38 1332.25,-482.97 1322.68,-478.42 1321.93,-485.38"/>
</g>
<!-- OS4_Ergodicity&#45;&gt;OS0_GFF -->
<g id="edge133" class="edge">
<title>OS4_Ergodicity&#45;&gt;OS0_GFF</title>
<path fill="none" stroke="#666666" d="M451.98,-130.45C393.4,-164.72 279.04,-243.95 325,-318 436.12,-497.03 709.34,-557.94 814.14,-575.14"/>
<polygon fill="#666666" stroke="#666666" points="813.28,-578.54 823.71,-576.65 814.38,-571.63 813.28,-578.54"/>
</g>
<!-- OS4_Ergodicity&#45;&gt;GFFMconstruct -->
<g id="edge131" class="edge">
<title>OS4_Ergodicity&#45;&gt;GFFMconstruct</title>
<path fill="none" stroke="#666666" d="M527.55,-114.02C647.18,-117.54 978.01,-132.18 1069,-188 1211.11,-275.18 1153.44,-384.87 1268,-506 1328.75,-570.23 1417.92,-623.57 1471.15,-652.23"/>
<polygon fill="#666666" stroke="#666666" points="1469.49,-655.31 1479.96,-656.91 1472.78,-649.13 1469.49,-655.31"/>
</g>
<!-- OS4_Ergodicity&#45;&gt;OS2_GFF -->
<g id="edge134" class="edge">
<title>OS4_Ergodicity&#45;&gt;OS2_GFF</title>
<path fill="none" stroke="#666666" d="M527.74,-116.11C648.15,-124.88 994.58,-151.59 1281,-188 1528.48,-219.46 1823.42,-271.73 1931.06,-291.29"/>
<polygon fill="#666666" stroke="#666666" points="1930.11,-294.68 1940.58,-293.03 1931.37,-287.79 1930.11,-294.68"/>
</g>
<!-- OS4_Ergodicity&#45;&gt;OS4_MGF -->
<g id="edge135" class="edge">
<title>OS4_Ergodicity&#45;&gt;OS4_MGF</title>
<path fill="none" stroke="#666666" d="M527.57,-120.45C628.39,-137.69 876.87,-180.18 978.05,-197.49"/>
<polygon fill="#666666" stroke="#666666" points="977.42,-200.93 987.87,-199.16 978.6,-194.03 977.42,-200.93"/>
</g>
<!-- OS4_Ergodicity&#45;&gt;TimeTranslation -->
<g id="edge139" class="edge">
<title>OS4_Ergodicity&#45;&gt;TimeTranslation</title>
<path fill="none" stroke="#666666" d="M440.46,-115.96C350.21,-122.94 146.94,-143.33 96,-188 56.9,-222.29 59,-247 59,-299 59,-299 59,-299 59,-677 59,-827.56 258.29,-909.69 358.23,-941.41"/>
<polygon fill="#666666" stroke="#666666" points="357.01,-944.7 367.59,-944.32 359.08,-938.01 357.01,-944.7"/>
</g>
<!-- L2TimeIntegral -->
<g id="node43" class="node">
<title>L2TimeIntegral</title>
<polygon fill="white" stroke="black" points="483.88,-224 398.12,-224 398.12,-188 483.88,-188 483.88,-224"/>
<text xml:space="preserve" text-anchor="middle" x="441" y="-202.3" font-family="Times,serif" font-size="11.00">L2TimeIntegral</text>
</g>
<!-- OS4_Ergodicity&#45;&gt;L2TimeIntegral -->
<g id="edge132" class="edge">
<title>OS4_Ergodicity&#45;&gt;L2TimeIntegral</title>
<path fill="none" stroke="#666666" d="M475.91,-130.3C469.67,-143.67 460.9,-162.41 453.72,-177.78"/>
<polygon fill="#666666" stroke="#666666" points="450.76,-175.86 449.69,-186.4 457.1,-178.82 450.76,-175.86"/>
</g>
<!-- SchwartzTranslationDecay -->
<g id="node44" class="node">
<title>SchwartzTranslationDecay</title>
<polygon fill="white" stroke="black" points="476.75,-318 339.25,-318 339.25,-282 476.75,-282 476.75,-318"/>
<text xml:space="preserve" text-anchor="middle" x="408" y="-296.3" font-family="Times,serif" font-size="11.00">SchwartzTranslationDecay</text>
</g>
<!-- OS4_Ergodicity&#45;&gt;SchwartzTranslationDecay -->
<g id="edge137" class="edge">
<title>OS4_Ergodicity&#45;&gt;SchwartzTranslationDecay</title>
<path fill="none" stroke="#666666" d="M445.87,-130.43C423.39,-142.95 396.91,-162.18 384,-188 370.76,-214.49 381.32,-248.11 392.31,-271.37"/>
<polygon fill="#666666" stroke="#666666" points="389.15,-272.88 396.78,-280.22 395.39,-269.72 389.15,-272.88"/>
</g>
<!-- GaussianRBF&#45;&gt;HadamardExp -->
<g id="edge57" class="edge">
<title>GaussianRBF&#45;&gt;HadamardExp</title>
<path fill="none" stroke="#666666" d="M1789.86,-976.3C1818.68,-991.04 1860.29,-1012.3 1891.74,-1028.38"/>
<polygon fill="#666666" stroke="#666666" points="1890.14,-1031.49 1900.64,-1032.93 1893.33,-1025.26 1890.14,-1031.49"/>
</g>
<!-- GaussianRBF&#45;&gt;PositiveDefinite -->
<g id="edge58" class="edge">
<title>GaussianRBF&#45;&gt;PositiveDefinite</title>
<path fill="none" stroke="#666666" d="M1716.63,-971.89C1668.02,-987.8 1585.05,-1014.97 1530.12,-1032.95"/>
<polygon fill="#666666" stroke="#666666" points="1529.04,-1029.62 1520.63,-1036.06 1531.22,-1036.28 1529.04,-1029.62"/>
</g>
<!-- SchurProduct -->
<g id="node31" class="node">
<title>SchurProduct</title>
<polygon fill="white" stroke="black" points="1963.62,-1164 1888.38,-1164 1888.38,-1128 1963.62,-1128 1963.62,-1164"/>
<text xml:space="preserve" text-anchor="middle" x="1926" y="-1142.3" font-family="Times,serif" font-size="11.00">SchurProduct</text>
</g>
<!-- GaussianRBF&#45;&gt;SchurProduct -->
<g id="edge59" class="edge">
<title>GaussianRBF&#45;&gt;SchurProduct</title>
<path fill="none" stroke="#666666" d="M1771.99,-976.5C1802.19,-1009.54 1867.72,-1081.23 1902.77,-1119.58"/>
<polygon fill="#666666" stroke="#666666" points="1899.82,-1121.55 1909.15,-1126.57 1904.99,-1116.82 1899.82,-1121.55"/>
</g>
<!-- HadamardExp&#45;&gt;SchurProduct -->
<g id="edge60" class="edge">
<title>HadamardExp&#45;&gt;SchurProduct</title>
<path fill="none" stroke="#666666" d="M1934.12,-1070.3C1932.71,-1083.28 1930.75,-1101.34 1929.1,-1116.44"/>
<polygon fill="#666666" stroke="#666666" points="1925.64,-1115.95 1928.04,-1126.27 1932.6,-1116.71 1925.64,-1115.95"/>
</g>
<!-- FrobeniusPositivity -->
<g id="node46" class="node">
<title>FrobeniusPositivity</title>
<polygon fill="white" stroke="black" points="1976.38,-1258 1875.62,-1258 1875.62,-1222 1976.38,-1222 1976.38,-1258"/>
<text xml:space="preserve" text-anchor="middle" x="1926" y="-1236.3" font-family="Times,serif" font-size="11.00">FrobeniusPositivity</text>
</g>
<!-- SchurProduct&#45;&gt;FrobeniusPositivity -->
<g id="edge164" class="edge">
<title>SchurProduct&#45;&gt;FrobeniusPositivity</title>
<path fill="none" stroke="#666666" d="M1926,-1164.3C1926,-1177.28 1926,-1195.34 1926,-1210.44"/>
<polygon fill="#666666" stroke="#666666" points="1922.5,-1210.26 1926,-1220.26 1929.5,-1210.26 1922.5,-1210.26"/>
</g>
<!-- OS3_CovarianceRP&#45;&gt;Basic -->
<g id="edge82" class="edge">
<title>OS3_CovarianceRP&#45;&gt;Basic</title>
<path fill="none" stroke="#666666" d="M3730.12,-584.85C3868.37,-592.67 4241.97,-633.45 4435,-846 4561.13,-984.89 4657.34,-1123.04 4527,-1258 4488.78,-1297.58 2700.87,-1327.78 2412.95,-1332.39"/>
<polygon fill="#666666" stroke="#666666" points="2412.94,-1328.89 2402.99,-1332.55 2413.05,-1335.89 2412.94,-1328.89"/>
</g>
<!-- OS3_CovarianceRP&#45;&gt;Covariance -->
<g id="edge83" class="edge">
<title>OS3_CovarianceRP&#45;&gt;Covariance</title>
<path fill="none" stroke="#666666" d="M3624.08,-593.37C3573.32,-604.67 3495.52,-625.59 3434,-658 3351.71,-701.35 3345.37,-733.5 3270,-788 3244.92,-806.14 3215.74,-825.3 3193.18,-839.71"/>
<polygon fill="#666666" stroke="#666666" points="3191.48,-836.65 3184.92,-844.97 3195.23,-842.56 3191.48,-836.65"/>
</g>
<!-- OS3_CovarianceRP&#45;&gt;CovarianceMomentum -->
<g id="edge84" class="edge">
<title>OS3_CovarianceRP&#45;&gt;CovarianceMomentum</title>
<path fill="none" stroke="#666666" d="M3624.06,-592.88C3562.53,-605.09 3458.4,-627.96 3372,-658 3276.94,-691.05 3251.56,-699.01 3166,-752 3109.59,-786.94 3101.38,-804 3050,-846 2999.16,-887.56 2978.58,-890.01 2936,-940 2914.12,-965.68 2895.43,-999.71 2883.78,-1023.29"/>
<polygon fill="#666666" stroke="#666666" points="2880.64,-1021.74 2879.45,-1032.27 2886.95,-1024.78 2880.64,-1021.74"/>
</g>
<!-- OS3_CovarianceRP&#45;&gt;FourierTransforms -->
<g id="edge85" class="edge">
<title>OS3_CovarianceRP&#45;&gt;FourierTransforms</title>
<path fill="none" stroke="#666666" d="M3679.48,-600.46C3686.81,-652.23 3709.04,-809.49 3727,-940 3730.85,-967.96 3735.15,-999.89 3738.16,-1022.3"/>
<polygon fill="#666666" stroke="#666666" points="3734.69,-1022.75 3739.49,-1032.19 3741.63,-1021.82 3734.69,-1022.75"/>
</g>
<!-- OS3_CovarianceRP&#45;&gt;Parseval -->
<g id="edge88" class="edge">
<title>OS3_CovarianceRP&#45;&gt;Parseval</title>
<path fill="none" stroke="#666666" d="M3661.01,-600.04C3604.82,-659.91 3416.26,-860.82 3349.6,-931.86"/>
<polygon fill="#666666" stroke="#666666" points="3347.41,-929.07 3343.12,-938.75 3352.52,-933.86 3347.41,-929.07"/>
</g>
<!-- OS3_CovarianceRP&#45;&gt;PositiveTimeTestFunction_real -->
<g id="edge89" class="edge">
<title>OS3_CovarianceRP&#45;&gt;PositiveTimeTestFunction_real</title>
<path fill="none" stroke="#666666" d="M3675.13,-600.04C3668.66,-659.06 3647.17,-855.13 3639.1,-928.75"/>
<polygon fill="#666666" stroke="#666666" points="3635.65,-928.03 3638.04,-938.35 3642.61,-928.79 3635.65,-928.03"/>
</g>
<!-- OS3_MixedRep -->
<g id="node34" class="node">
<title>OS3_MixedRep</title>
<polygon fill="white" stroke="black" points="3844.62,-694 3757.38,-694 3757.38,-658 3844.62,-658 3844.62,-694"/>
<text xml:space="preserve" text-anchor="middle" x="3801" y="-672.3" font-family="Times,serif" font-size="11.00">OS3_MixedRep</text>
</g>
<!-- OS3_CovarianceRP&#45;&gt;OS3_MixedRep -->
<g id="edge86" class="edge">
<title>OS3_CovarianceRP&#45;&gt;OS3_MixedRep</title>
<path fill="none" stroke="#666666" d="M3700.32,-600.3C3719.63,-614.63 3747.28,-635.14 3768.72,-651.05"/>
<polygon fill="#666666" stroke="#666666" points="3766.45,-653.72 3776.57,-656.87 3770.62,-648.1 3766.45,-653.72"/>
</g>
<!-- OS3_MixedRepInfra -->
<g id="node35" class="node">
<title>OS3_MixedRepInfra</title>
<polygon fill="white" stroke="black" points="3988.5,-788 3879.5,-788 3879.5,-752 3988.5,-752 3988.5,-788"/>
<text xml:space="preserve" text-anchor="middle" x="3934" y="-766.3" font-family="Times,serif" font-size="11.00">OS3_MixedRepInfra</text>
</g>
<!-- OS3_CovarianceRP&#45;&gt;OS3_MixedRepInfra -->
<g id="edge87" class="edge">
<title>OS3_CovarianceRP&#45;&gt;OS3_MixedRepInfra</title>
<path fill="none" stroke="#666666" d="M3729.93,-595.89C3768.77,-607.34 3821.11,-627.13 3859,-658 3886.96,-680.78 3908.56,-716.69 3921.25,-741.46"/>
<polygon fill="#666666" stroke="#666666" points="3918.05,-742.88 3925.62,-750.29 3924.32,-739.78 3918.05,-742.88"/>
</g>
<!-- OS3_MixedRep&#45;&gt;OS3_MixedRepInfra -->
<g id="edge99" class="edge">
<title>OS3_MixedRep&#45;&gt;OS3_MixedRepInfra</title>
<path fill="none" stroke="#666666" d="M3826.02,-694.3C3846.82,-708.7 3876.65,-729.33 3899.69,-745.26"/>
<polygon fill="#666666" stroke="#666666" points="3897.64,-748.1 3907.85,-750.91 3901.62,-742.34 3897.64,-748.1"/>
</g>
<!-- OS3_MixedRepInfra&#45;&gt;Basic -->
<g id="edge100" class="edge">
<title>OS3_MixedRepInfra&#45;&gt;Basic</title>
<path fill="none" stroke="#666666" d="M3965.91,-788.33C3986.75,-801.37 4012.65,-821.23 4027,-846 4056.16,-896.32 4067.14,-923.55 4042,-976 3957.31,-1152.69 3599.81,-1223.99 3450,-1258 3246.36,-1304.23 2580.84,-1326.83 2412.8,-1331.89"/>
<polygon fill="#666666" stroke="#666666" points="2412.76,-1328.39 2402.87,-1332.18 2412.97,-1335.39 2412.76,-1328.39"/>
</g>
<!-- OS3_MixedRepInfra&#45;&gt;OS_Axioms -->
<g id="edge108" class="edge">
<title>OS3_MixedRepInfra&#45;&gt;OS_Axioms</title>
<path fill="none" stroke="#666666" d="M3879.12,-773.61C3596.11,-787.04 2304.69,-848.35 2042.52,-860.79"/>
<polygon fill="#666666" stroke="#666666" points="2042.5,-857.29 2032.68,-861.26 2042.83,-864.28 2042.5,-857.29"/>
</g>
<!-- OS3_MixedRepInfra&#45;&gt;FunctionalAnalysis -->
<g id="edge106" class="edge">
<title>OS3_MixedRepInfra&#45;&gt;FunctionalAnalysis</title>
<path fill="none" stroke="#666666" d="M3988.73,-774.27C4095.21,-781.54 4325.44,-802 4390,-846 4549.45,-954.68 4656.18,-1114.65 4527,-1258 4444.61,-1349.42 2515.85,-1413.51 2141.58,-1425.11"/>
<polygon fill="#666666" stroke="#666666" points="2141.6,-1421.61 2131.71,-1425.42 2141.82,-1428.61 2141.6,-1421.61"/>
</g>
<!-- OS3_MixedRepInfra&#45;&gt;Euclidean -->
<g id="edge104" class="edge">
<title>OS3_MixedRepInfra&#45;&gt;Euclidean</title>
<path fill="none" stroke="#666666" d="M3950.99,-788.28C3984.57,-824.61 4053.05,-910.92 4015,-976 3972.01,-1049.53 3928.17,-1041.25 3848,-1070 3468.18,-1206.18 2972.82,-1232.87 2827.06,-1237.88"/>
<polygon fill="#666666" stroke="#666666" points="2827,-1234.38 2817.12,-1238.21 2827.23,-1241.38 2827,-1234.38"/>
</g>
<!-- OS3_MixedRepInfra&#45;&gt;Covariance -->
<g id="edge101" class="edge">
<title>OS3_MixedRepInfra&#45;&gt;Covariance</title>
<path fill="none" stroke="#666666" d="M3879.29,-777.47C3733.1,-794.76 3335.34,-841.79 3201.01,-857.68"/>
<polygon fill="#666666" stroke="#666666" points="3200.97,-854.16 3191.45,-858.81 3201.79,-861.11 3200.97,-854.16"/>
</g>
<!-- OS3_MixedRepInfra&#45;&gt;CovarianceMomentum -->
<g id="edge102" class="edge">
<title>OS3_MixedRepInfra&#45;&gt;CovarianceMomentum</title>
<path fill="none" stroke="#666666" d="M3922.83,-788.48C3895.36,-829.73 3819.93,-932.93 3727,-976 3587.85,-1040.49 3120.04,-1049.77 2941.26,-1050.92"/>
<polygon fill="#666666" stroke="#666666" points="2941.41,-1047.42 2931.43,-1050.98 2941.45,-1054.42 2941.41,-1047.42"/>
</g>
<!-- OS3_MixedRepInfra&#45;&gt;DiscreteSymmetry -->
<g id="edge103" class="edge">
<title>OS3_MixedRepInfra&#45;&gt;DiscreteSymmetry</title>
<path fill="none" stroke="#666666" d="M3933.05,-788.15C3929.05,-841.87 3908.5,-1007.08 3806,-1070 3724.92,-1119.77 3442.08,-1137.36 3316.21,-1142.82"/>
<polygon fill="#666666" stroke="#666666" points="3316.25,-1139.32 3306.4,-1143.23 3316.54,-1146.31 3316.25,-1139.32"/>
</g>
<!-- OS3_MixedRepInfra&#45;&gt;FourierTransforms -->
<g id="edge105" class="edge">
<title>OS3_MixedRepInfra&#45;&gt;FourierTransforms</title>
<path fill="none" stroke="#666666" d="M3928.92,-788.43C3917.4,-825.79 3886.49,-915.14 3838,-976 3821.99,-996.09 3799.56,-1014.01 3780.4,-1027.28"/>
<polygon fill="#666666" stroke="#666666" points="3778.62,-1024.27 3772.28,-1032.76 3782.53,-1030.07 3778.62,-1024.27"/>
</g>
<!-- OS3_MixedRepInfra&#45;&gt;Schwinger -->
<g id="edge111" class="edge">
<title>OS3_MixedRepInfra&#45;&gt;Schwinger</title>
<path fill="none" stroke="#666666" d="M3879.24,-774.59C3746.59,-783.57 3397.59,-809.02 3108,-846 2853.31,-878.52 2789.73,-889.45 2538,-940 2415.29,-964.64 2113.47,-1049.52 1990,-1070 1711.36,-1116.22 1371.64,-1136.8 1253.19,-1142.93"/>
<polygon fill="#666666" stroke="#666666" points="1253.1,-1139.43 1243.29,-1143.43 1253.46,-1146.42 1253.1,-1139.43"/>
</g>
<!-- LaplaceIntegral -->
<g id="node36" class="node">
<title>LaplaceIntegral</title>
<polygon fill="white" stroke="black" points="4300.25,-882 4213.75,-882 4213.75,-846 4300.25,-846 4300.25,-882"/>
<text xml:space="preserve" text-anchor="middle" x="4257" y="-860.3" font-family="Times,serif" font-size="11.00">LaplaceIntegral</text>
</g>
<!-- OS3_MixedRepInfra&#45;&gt;LaplaceIntegral -->
<g id="edge107" class="edge">
<title>OS3_MixedRepInfra&#45;&gt;LaplaceIntegral</title>
<path fill="none" stroke="#666666" d="M3988.79,-786.61C4048.31,-803.56 4142.83,-830.48 4202.31,-847.42"/>
<polygon fill="#666666" stroke="#666666" points="4201.32,-850.78 4211.9,-850.15 4203.24,-844.05 4201.32,-850.78"/>
</g>
<!-- SchwartzProdIntegrable -->
<g id="node37" class="node">
<title>SchwartzProdIntegrable</title>
<polygon fill="white" stroke="black" points="4512.62,-1258 4389.38,-1258 4389.38,-1222 4512.62,-1222 4512.62,-1258"/>
<text xml:space="preserve" text-anchor="middle" x="4451" y="-1236.3" font-family="Times,serif" font-size="11.00">SchwartzProdIntegrable</text>
</g>
<!-- OS3_MixedRepInfra&#45;&gt;SchwartzProdIntegrable -->
<g id="edge109" class="edge">
<title>OS3_MixedRepInfra&#45;&gt;SchwartzProdIntegrable</title>
<path fill="none" stroke="#666666" d="M3988.69,-774.11C4089.02,-780.87 4297.17,-800.15 4351,-846 4461.42,-940.06 4458.88,-1137.27 4453.68,-1210.68"/>
<polygon fill="#666666" stroke="#666666" points="4450.22,-1209.99 4452.92,-1220.24 4457.2,-1210.54 4450.22,-1209.99"/>
</g>
<!-- SchwartzTonelli -->
<g id="node38" class="node">
<title>SchwartzTonelli</title>
<polygon fill="white" stroke="black" points="4359.38,-1070 4270.62,-1070 4270.62,-1034 4359.38,-1034 4359.38,-1070"/>
<text xml:space="preserve" text-anchor="middle" x="4315" y="-1048.3" font-family="Times,serif" font-size="11.00">SchwartzTonelli</text>
</g>
<!-- OS3_MixedRepInfra&#45;&gt;SchwartzTonelli -->
<g id="edge110" class="edge">
<title>OS3_MixedRepInfra&#45;&gt;SchwartzTonelli</title>
<path fill="none" stroke="#666666" d="M3988.92,-783.96C4030.91,-795.63 4088.89,-815.66 4133,-846 4205.6,-895.94 4268.39,-980.88 4297.58,-1024.07"/>
<polygon fill="#666666" stroke="#666666" points="4294.64,-1025.97 4303.1,-1032.35 4300.47,-1022.09 4294.64,-1025.97"/>
</g>
<!-- SpacetimeDecomp -->
<g id="node39" class="node">
<title>SpacetimeDecomp</title>
<polygon fill="white" stroke="black" points="4430,-1164 4330,-1164 4330,-1128 4430,-1128 4430,-1164"/>
<text xml:space="preserve" text-anchor="middle" x="4380" y="-1142.3" font-family="Times,serif" font-size="11.00">SpacetimeDecomp</text>
</g>
<!-- OS3_MixedRepInfra&#45;&gt;SpacetimeDecomp -->
<g id="edge112" class="edge">
<title>OS3_MixedRepInfra&#45;&gt;SpacetimeDecomp</title>
<path fill="none" stroke="#666666" d="M3988.88,-774.99C4082.5,-782.87 4267.55,-803.49 4315,-846 4393.29,-916.14 4389.39,-1056.48 4383.58,-1116.6"/>
<polygon fill="#666666" stroke="#666666" points="4380.12,-1116.01 4382.54,-1126.33 4387.08,-1116.76 4380.12,-1116.01"/>
</g>
<!-- SchwartzProdIntegrable&#45;&gt;Basic -->
<g id="edge165" class="edge">
<title>SchwartzProdIntegrable&#45;&gt;Basic</title>
<path fill="none" stroke="#666666" d="M4389.25,-1254.68C4381.78,-1255.98 4374.24,-1257.14 4367,-1258 3968.24,-1305.54 2655.85,-1328.5 2412.88,-1332.4"/>
<polygon fill="#666666" stroke="#666666" points="2412.95,-1328.9 2403.01,-1332.55 2413.06,-1335.89 2412.95,-1328.9"/>
</g>
<!-- SchwartzProdIntegrable&#45;&gt;FunctionalAnalysis -->
<g id="edge166" class="edge">
<title>SchwartzProdIntegrable&#45;&gt;FunctionalAnalysis</title>
<path fill="none" stroke="#666666" d="M4389.01,-1251.94C4375.52,-1254.12 4361.3,-1256.27 4348,-1258 3477.12,-1371.16 2407.61,-1415.23 2141.27,-1424.87"/>
<polygon fill="#666666" stroke="#666666" points="2141.3,-1421.37 2131.44,-1425.22 2141.55,-1428.36 2141.3,-1421.37"/>
</g>
<!-- SchwartzTonelli&#45;&gt;Basic -->
<g id="edge167" class="edge">
<title>SchwartzTonelli&#45;&gt;Basic</title>
<path fill="none" stroke="#666666" d="M4315.46,-1070.42C4315.47,-1111.09 4309.14,-1212.31 4249,-1258 4173.23,-1315.56 2673.76,-1330.53 2412.62,-1332.7"/>
<polygon fill="#666666" stroke="#666666" points="2412.95,-1329.2 2402.98,-1332.78 2413.01,-1336.2 2412.95,-1329.2"/>
</g>
<!-- SchwartzTonelli&#45;&gt;SpacetimeDecomp -->
<g id="edge168" class="edge">
<title>SchwartzTonelli&#45;&gt;SpacetimeDecomp</title>
<path fill="none" stroke="#666666" d="M4327.23,-1070.3C4336.85,-1083.93 4350.42,-1103.14 4361.39,-1118.66"/>
<polygon fill="#666666" stroke="#666666" points="4358.33,-1120.39 4366.96,-1126.54 4364.04,-1116.35 4358.33,-1120.39"/>
</g>
<!-- SpacetimeDecomp&#45;&gt;Basic -->
<g id="edge174" class="edge">
<title>SpacetimeDecomp&#45;&gt;Basic</title>
<path fill="none" stroke="#666666" d="M4374.54,-1164.28C4365.4,-1189.95 4344.34,-1237.33 4308,-1258 4222.6,-1306.57 2678.69,-1329 2412.82,-1332.51"/>
<polygon fill="#666666" stroke="#666666" points="2412.95,-1329 2403,-1332.63 2413.04,-1336 2412.95,-1329"/>
</g>
<!-- SpacetimeDecomp&#45;&gt;SchwartzProdIntegrable -->
<g id="edge175" class="edge">
<title>SpacetimeDecomp&#45;&gt;SchwartzProdIntegrable</title>
<path fill="none" stroke="#666666" d="M4393.35,-1164.3C4403.87,-1177.93 4418.69,-1197.14 4430.68,-1212.66"/>
<polygon fill="#666666" stroke="#666666" points="4427.9,-1214.8 4436.78,-1220.57 4433.44,-1210.52 4427.9,-1214.8"/>
</g>
<!-- OS4_MGF&#45;&gt;Basic -->
<g id="edge140" class="edge">
<title>OS4_MGF&#45;&gt;Basic</title>
<path fill="none" stroke="#666666" d="M989.14,-217.01C938.66,-232.69 844.73,-263.23 815,-282 613.84,-409.02 575.36,-466.65 434,-658 346.43,-776.54 302.19,-833.55 340,-976 376.52,-1113.62 369.92,-1184.72 492,-1258 573.89,-1307.15 2074.14,-1329.06 2335.37,-1332.51"/>
<polygon fill="#666666" stroke="#666666" points="2334.97,-1336 2345.02,-1332.64 2335.06,-1329 2334.97,-1336"/>
</g>
<!-- OS4_MGF&#45;&gt;OS_Axioms -->
<g id="edge147" class="edge">
<title>OS4_MGF&#45;&gt;OS_Axioms</title>
<path fill="none" stroke="#666666" d="M1034.85,-224.49C1077,-281.54 1211.57,-461.14 1268,-506 1386.87,-600.5 1439.04,-588.4 1574,-658 1682.86,-714.14 1706.39,-735.39 1817,-788 1861.59,-809.21 1913.78,-830.71 1950.26,-845.22"/>
<polygon fill="#666666" stroke="#666666" points="1948.59,-848.32 1959.18,-848.75 1951.17,-841.82 1948.59,-848.32"/>
</g>
<!-- OS4_MGF&#45;&gt;ComplexTestFunction -->
<g id="edge141" class="edge">
<title>OS4_MGF&#45;&gt;ComplexTestFunction</title>
<path fill="none" stroke="#666666" d="M1000.98,-224.5C984.77,-238.77 962.56,-260.08 947,-282 866.45,-395.46 843.68,-428.75 811,-564 752.05,-807.97 781.92,-1116.08 793.27,-1210.32"/>
<polygon fill="#666666" stroke="#666666" points="789.79,-1210.7 794.49,-1220.2 796.74,-1209.84 789.79,-1210.7"/>
</g>
<!-- OS4_MGF&#45;&gt;CovarianceMomentum -->
<g id="edge142" class="edge">
<title>OS4_MGF&#45;&gt;CovarianceMomentum</title>
<path fill="none" stroke="#666666" d="M1054.68,-210.29C1201.17,-225.44 1797.51,-291.32 1963,-376 2133.83,-463.41 2416.71,-882 2584,-976 2652.01,-1014.21 2740.03,-1033.46 2800.56,-1042.81"/>
<polygon fill="#666666" stroke="#666666" points="2800.01,-1046.27 2810.41,-1044.28 2801.04,-1039.35 2800.01,-1046.27"/>
</g>
<!-- OS4_MGF&#45;&gt;Schwinger -->
<g id="edge148" class="edge">
<title>OS4_MGF&#45;&gt;Schwinger</title>
<path fill="none" stroke="#666666" d="M1015.14,-224.36C978.62,-319.92 815.79,-787.81 1011,-1070 1045.95,-1120.52 1119.54,-1137.05 1166.78,-1142.44"/>
<polygon fill="#666666" stroke="#666666" points="1166.37,-1145.91 1176.67,-1143.43 1167.07,-1138.95 1166.37,-1145.91"/>
</g>
<!-- OS4_MGF&#45;&gt;GFFIsGaussian -->
<g id="edge143" class="edge">
<title>OS4_MGF&#45;&gt;GFFIsGaussian</title>
<path fill="none" stroke="#666666" d="M1049.47,-224.41C1072.28,-239.14 1105.34,-261.13 1133,-282 1214.19,-343.27 1304.6,-422.26 1349.12,-461.92"/>
<polygon fill="#666666" stroke="#666666" points="1346.73,-464.48 1356.52,-468.53 1351.39,-459.26 1346.73,-464.48"/>
</g>
<!-- OS4_MGF&#45;&gt;OS0_GFF -->
<g id="edge145" class="edge">
<title>OS4_MGF&#45;&gt;OS0_GFF</title>
<path fill="none" stroke="#666666" d="M1008.42,-224.46C997.37,-239.22 981.88,-261.21 971,-282 921.26,-377.03 881.2,-498.56 864.46,-552.74"/>
<polygon fill="#666666" stroke="#666666" points="861.18,-551.51 861.6,-562.09 867.87,-553.55 861.18,-551.51"/>
</g>
<!-- OS4_MGF&#45;&gt;GFFMconstruct -->
<g id="edge144" class="edge">
<title>OS4_MGF&#45;&gt;GFFMconstruct</title>
<path fill="none" stroke="#666666" d="M1026.38,-224.22C1039.2,-272.3 1080.12,-410.7 1149,-506 1186.08,-557.3 1200.47,-569.61 1256,-600 1321.79,-636.01 1406.64,-656.28 1461.19,-666.43"/>
<polygon fill="#666666" stroke="#666666" points="1460.4,-669.84 1470.86,-668.17 1461.64,-662.95 1460.4,-669.84"/>
</g>
<!-- OS4_MGF&#45;&gt;OS2_GFF -->
<g id="edge146" class="edge">
<title>OS4_MGF&#45;&gt;OS2_GFF</title>
<path fill="none" stroke="#666666" d="M1054.86,-209.21C1167.47,-216.93 1548.11,-244.31 1861,-282 1884.23,-284.8 1910.06,-288.67 1931.05,-292.01"/>
<polygon fill="#666666" stroke="#666666" points="1930.25,-295.42 1940.68,-293.56 1931.36,-288.51 1930.25,-295.42"/>
</g>
<!-- OS4_MGF&#45;&gt;TimeTranslation -->
<g id="edge149" class="edge">
<title>OS4_MGF&#45;&gt;TimeTranslation</title>
<path fill="none" stroke="#666666" d="M989.39,-215.38C952.93,-226.03 893.67,-247.33 853,-282 793.49,-332.73 502.65,-810.41 430.32,-929.97"/>
<polygon fill="#666666" stroke="#666666" points="427.34,-928.13 425.16,-938.5 433.33,-931.76 427.34,-928.13"/>
</g>
<!-- QuantitativeDecay&#45;&gt;SchwartzTranslationDecay -->
<g id="edge163" class="edge">
<title>QuantitativeDecay&#45;&gt;SchwartzTranslationDecay</title>
<path fill="none" stroke="#666666" d="M581.5,-224.41C546.72,-239.36 496.41,-260.99 458.91,-277.11"/>
<polygon fill="#666666" stroke="#666666" points="457.9,-273.74 450.09,-280.9 460.66,-280.17 457.9,-273.74"/>
</g>
<!-- TimeTranslation&#45;&gt;Basic -->
<g id="edge176" class="edge">
<title>TimeTranslation&#45;&gt;Basic</title>
<path fill="none" stroke="#666666" d="M414.62,-976.38C417.64,-1030.81 435.33,-1197.88 539,-1258 619.43,-1304.65 2077.23,-1328.56 2335.16,-1332.44"/>
<polygon fill="#666666" stroke="#666666" points="2334.96,-1335.93 2345.01,-1332.58 2335.07,-1328.93 2334.96,-1335.93"/>
</g>
<!-- SchwingerTwoPointFunction&#45;&gt;Basic -->
<g id="edge172" class="edge">
<title>SchwingerTwoPointFunction&#45;&gt;Basic</title>
<path fill="none" stroke="#666666" d="M1687.66,-1070.42C1711.26,-1111.1 1776.13,-1212.34 1861,-1258 1943.43,-1302.35 2230.53,-1324.14 2335.33,-1330.75"/>
<polygon fill="#666666" stroke="#666666" points="2334.9,-1334.24 2345.1,-1331.36 2335.34,-1327.25 2334.9,-1334.24"/>
</g>
<!-- SchwingerTwoPointFunction&#45;&gt;Schwinger -->
<g id="edge173" class="edge">
<title>SchwingerTwoPointFunction&#45;&gt;Schwinger</title>
<path fill="none" stroke="#666666" d="M1606.16,-1067.12C1507.61,-1086.49 1333.59,-1120.7 1253.08,-1136.53"/>
<polygon fill="#666666" stroke="#666666" points="1252.52,-1133.07 1243.39,-1138.44 1253.87,-1139.94 1252.52,-1133.07"/>
</g>
</g>
</svg>
